<?xml version="1.0" encoding="UTF-8" standalone="no"?>
<!-- Uploaded to: SVG Repo, www.svgrepo.com, Generator: SVG Repo Mixer Tools -->

<svg
   fill="#000000"
   height="150.00002"
   width="626.65796"
   version="1.1"
   id="Capa_1"
   viewBox="0 0 45.432702 10.875001"
   xml:space="preserve"
   sodipodi:docname="carga_datos_logo.svg"
   inkscape:version="1.4.2 (f4327f4, 2025-05-13)"
   xmlns:inkscape="http://www.inkscape.org/namespaces/inkscape"
   xmlns:sodipodi="http://sodipodi.sourceforge.net/DTD/sodipodi-0.dtd"
   xmlns="http://www.w3.org/2000/svg"
   xmlns:svg="http://www.w3.org/2000/svg"><sodipodi:namedview
   id="namedview1"
   pagecolor="#ffffff"
   bordercolor="#000000"
   borderopacity="0.25"
   inkscape:showpageshadow="2"
   inkscape:pageopacity="0.0"
   inkscape:pagecheckerboard="0"
   inkscape:deskcolor="#d1d1d1"
   inkscape:zoom="1.9500271"
   inkscape:cx="313.58539"
   inkscape:cy="75.127161"
   inkscape:window-width="1366"
   inkscape:window-height="697"
   inkscape:window-x="-8"
   inkscape:window-y="-8"
   inkscape:window-maximized="1"
   inkscape:current-layer="g3" /><defs
   id="defs2"><rect
     x="342.99875"
     y="356.87732"
     width="228.00496"
     height="110.03717"
     id="rect3" /></defs>

<g
   id="g3"
   transform="matrix(2.283178,0,0,2.283178,-28.398976,-60.774666)"><text
     xml:space="preserve"
     transform="matrix(0.03175399,0,0,0.03175399,9.6862032,16.298408)"
     id="text3"
     style="font-size:42.6667px;font-family:'Myriad Pro';-inkscape-font-specification:'Myriad Pro';text-align:start;writing-mode:lr-tb;direction:ltr;white-space:pre;shape-inside:url(#rect3);fill:#000000;stroke-width:1.00157" /><g
     id="g6"
     transform="translate(0.07382007)"><g
       id="g2"
       transform="matrix(0.08660178,0,0,0.08212238,12.234631,26.618453)">
	<path
   d="m 32.5,34 v 24 h 24 V 34 Z m 22,22 h -9 V 43.414 l 4.293,4.293 1.414,-1.414 -6.707,-6.707 -6.707,6.707 1.414,1.414 4.293,-4.293 V 56 h -9 V 36 h 20 z"
   id="path1" />
	<path
   d="M 26.5,42 C 25.673,42 24.863,41.984 24.068,41.956 23.586,41.938 23.121,41.907 22.651,41.88 22.354,41.863 22.048,41.852 21.756,41.831 21.132,41.786 20.526,41.728 19.927,41.666 19.807,41.653 19.681,41.645 19.562,41.632 18.876,41.557 18.208,41.471 17.557,41.376 17.533,41.373 17.508,41.37 17.485,41.367 14.106,40.868 11.206,40.107 8.937,39.202 8.92,39.195 8.902,39.189 8.886,39.182 8.472,39.015 8.083,38.844 7.712,38.668 7.665,38.646 7.615,38.624 7.568,38.601 7.235,38.441 6.928,38.276 6.633,38.11 6.56,38.068 6.483,38.027 6.412,37.985 6.156,37.835 5.922,37.681 5.698,37.527 5.609,37.465 5.518,37.404 5.435,37.342 5.247,37.203 5.077,37.062 4.915,36.921 4.823,36.841 4.732,36.761 4.649,36.68 4.516,36.551 4.4,36.422 4.29,36.293 4.21,36.199 4.134,36.105 4.066,36.01 3.979,35.889 3.905,35.768 3.839,35.647 3.784,35.546 3.735,35.445 3.693,35.344 3.645,35.225 3.607,35.106 3.579,34.988 3.541,34.825 3.5,34.662 3.5,34.5 v -8.207 c 0.018,0.016 0.039,0.032 0.057,0.048 0.232,0.205 0.47,0.409 0.738,0.605 C 8.067,29.791 15.595,32 26.5,32 c 10.88,0 18.396,-2.199 22.177,-5.034 0.29,-0.212 0.55,-0.431 0.799,-0.653 0.008,-0.007 0.017,-0.014 0.024,-0.021 V 30 c 0,0.553 0.448,1 1,1 0.552,0 1,-0.447 1,-1 V 23 22.5 10.5 10 C 51.5,9.838 51.453,9.69 51.384,9.555 50.163,4.365 39.062,0 26.5,0 13.938,0 2.837,4.365 1.616,9.555 1.547,9.69 1.5,9.838 1.5,10 v 0.5 12 0.5 11.5 0.5 12 c 0,0.161 0.042,0.313 0.115,0.448 1.139,4.833 10.691,7.68 19.811,8.364 0.025,0.002 0.051,0.003 0.076,0.003 0.519,0 0.957,-0.399 0.996,-0.925 C 22.54,54.339 22.126,53.859 21.576,53.818 10.461,52.984 3.984,49.6 3.532,46.838 3.524,46.793 3.514,46.75 3.5,46.707 v -8.414 c 0.018,0.016 0.039,0.032 0.057,0.048 0.232,0.205 0.47,0.409 0.738,0.605 C 8.067,41.791 15.595,44 26.5,44 c 0.552,0 1,-0.447 1,-1 0,-0.553 -0.448,-1 -1,-1 z M 4.101,14.797 c 0.3,0.236 0.624,0.469 0.975,0.696 0.073,0.047 0.155,0.093 0.231,0.14 0.294,0.183 0.605,0.362 0.932,0.538 0.121,0.065 0.242,0.129 0.367,0.193 0.365,0.186 0.748,0.366 1.151,0.542 0.066,0.029 0.126,0.059 0.193,0.087 0.469,0.199 0.967,0.389 1.485,0.572 0.143,0.051 0.293,0.099 0.44,0.149 0.412,0.139 0.838,0.272 1.279,0.401 0.159,0.046 0.315,0.094 0.478,0.139 0.585,0.162 1.189,0.316 1.823,0.458 0.087,0.02 0.181,0.037 0.269,0.056 0.559,0.122 1.139,0.235 1.735,0.34 0.202,0.036 0.407,0.07 0.613,0.104 0.567,0.093 1.151,0.179 1.75,0.257 0.154,0.02 0.301,0.042 0.457,0.062 0.744,0.09 1.514,0.167 2.305,0.233 0.195,0.016 0.398,0.028 0.596,0.042 0.633,0.046 1.28,0.084 1.942,0.114 0.241,0.011 0.481,0.022 0.727,0.03 0.863,0.029 1.741,0.05 2.651,0.05 0.91,0 1.788,-0.021 2.65,-0.05 0.245,-0.008 0.485,-0.02 0.727,-0.03 0.662,-0.03 1.309,-0.068 1.942,-0.114 0.198,-0.015 0.4,-0.026 0.596,-0.042 0.791,-0.065 1.561,-0.143 2.305,-0.233 0.156,-0.019 0.303,-0.042 0.457,-0.062 0.599,-0.078 1.182,-0.164 1.75,-0.257 0.206,-0.034 0.411,-0.068 0.613,-0.104 0.596,-0.105 1.176,-0.218 1.735,-0.34 0.088,-0.019 0.182,-0.036 0.269,-0.056 0.634,-0.142 1.238,-0.296 1.823,-0.458 0.163,-0.045 0.319,-0.092 0.478,-0.139 0.441,-0.128 0.867,-0.262 1.279,-0.401 0.147,-0.05 0.297,-0.098 0.44,-0.149 0.518,-0.184 1.017,-0.374 1.485,-0.572 0.067,-0.028 0.127,-0.059 0.193,-0.087 0.403,-0.176 0.786,-0.356 1.151,-0.542 0.125,-0.064 0.247,-0.128 0.367,-0.193 0.327,-0.175 0.638,-0.354 0.932,-0.538 0.076,-0.047 0.158,-0.093 0.231,-0.14 0.351,-0.227 0.675,-0.459 0.975,-0.696 0.075,-0.06 0.142,-0.12 0.215,-0.18 0.13,-0.108 0.267,-0.215 0.387,-0.324 V 22.5 c 0,0.163 -0.041,0.327 -0.08,0.491 -0.028,0.117 -0.065,0.233 -0.112,0.351 -0.042,0.103 -0.092,0.206 -0.148,0.309 -0.066,0.119 -0.138,0.238 -0.223,0.357 -0.069,0.096 -0.147,0.192 -0.228,0.289 -0.108,0.127 -0.223,0.254 -0.353,0.38 -0.085,0.083 -0.178,0.165 -0.272,0.247 -0.16,0.139 -0.327,0.278 -0.513,0.415 -0.086,0.064 -0.18,0.127 -0.271,0.19 -0.222,0.153 -0.453,0.305 -0.706,0.453 -0.074,0.044 -0.153,0.087 -0.23,0.13 -0.292,0.165 -0.597,0.328 -0.926,0.487 -0.049,0.023 -0.103,0.047 -0.153,0.071 -0.369,0.174 -0.754,0.345 -1.166,0.51 -0.019,0.007 -0.039,0.015 -0.058,0.022 -2.269,0.904 -5.166,1.665 -8.543,2.164 -0.024,0.003 -0.05,0.006 -0.074,0.01 -0.651,0.095 -1.318,0.181 -2.003,0.256 -0.12,0.013 -0.246,0.022 -0.367,0.034 -0.599,0.062 -1.204,0.12 -1.827,0.165 -0.293,0.021 -0.599,0.032 -0.897,0.049 -0.469,0.027 -0.934,0.059 -1.416,0.076 C 28.137,29.984 27.327,30 26.5,30 25.673,30 24.863,29.984 24.068,29.956 23.586,29.938 23.121,29.907 22.651,29.88 22.354,29.863 22.048,29.852 21.756,29.831 21.132,29.786 20.526,29.728 19.927,29.666 19.807,29.653 19.681,29.645 19.562,29.632 18.876,29.557 18.208,29.471 17.557,29.376 17.533,29.373 17.508,29.37 17.485,29.367 14.106,28.868 11.206,28.107 8.937,27.202 8.92,27.195 8.902,27.189 8.886,27.182 8.472,27.015 8.083,26.844 7.712,26.668 7.665,26.646 7.615,26.624 7.568,26.601 7.235,26.441 6.928,26.276 6.633,26.11 6.56,26.068 6.483,26.027 6.412,25.985 6.156,25.835 5.922,25.681 5.698,25.527 5.609,25.465 5.518,25.404 5.435,25.342 5.247,25.203 5.077,25.062 4.915,24.921 4.823,24.841 4.732,24.761 4.649,24.68 4.516,24.551 4.4,24.422 4.29,24.293 4.21,24.199 4.134,24.105 4.066,24.01 3.979,23.889 3.905,23.768 3.839,23.647 3.784,23.546 3.735,23.445 3.693,23.344 3.645,23.225 3.607,23.106 3.579,22.988 3.541,22.825 3.5,22.662 3.5,22.5 v -8.207 c 0.12,0.109 0.257,0.216 0.387,0.324 0.072,0.06 0.139,0.12 0.214,0.18 z M 26.5,2 c 12.34,0 22.353,4.363 22.97,8.135 10e-4,0.009 -0.003,0.017 -10e-4,0.025 0.019,0.112 0.032,0.226 0.032,0.34 0,3.548 -9.446,7.5 -23,7.5 -13.554,0 -23,-3.952 -23,-7.5 0,-0.113 0.013,-0.226 0.032,-0.338 C 3.534,10.153 3.53,10.144 3.532,10.135 4.147,6.363 14.159,2 26.5,2 Z"
   id="path2" />
</g><g
       id="g5"
       transform="matrix(0.9985459,0,0,0.98263946,-0.44916202,0.83200375)"><text
         xml:space="preserve"
         style="font-style:normal;font-variant:normal;font-weight:bold;font-stretch:normal;font-size:2.06685px;font-family:'Myriad Pro';-inkscape-font-specification:'Myriad Pro Bold';text-align:start;writing-mode:lr-tb;direction:ltr;text-anchor:start;white-space:pre;inline-size:48.1027;fill:#000000;stroke-width:0.264999"
         x="40.483273"
         y="105.62453"
         id="text1"
         transform="matrix(1.4966383,0,0,1.4966383,-42.11849,-129.72076)"><tspan
           x="40.483273"
           y="105.62453"
           id="tspan2">CARGA DE
</tspan></text><text
         xml:space="preserve"
         style="font-style:normal;font-variant:normal;font-weight:bold;font-stretch:normal;font-size:3.09333px;font-family:'Myriad Pro';-inkscape-font-specification:'Myriad Pro Bold';text-align:start;writing-mode:lr-tb;direction:rtl;text-anchor:start;fill:#000000;stroke-width:0.0318038"
         x="27.742859"
         y="31.055248"
         id="text5"><tspan
           id="tspan5"
           style="font-style:normal;font-variant:normal;font-weight:bold;font-stretch:normal;font-size:3.09333px;font-family:'Myriad Pro';-inkscape-font-specification:'Myriad Pro Bold';stroke-width:0.031804"
           x="27.742859"
           y="31.055248">DATOS</tspan></text></g></g></g></svg>
