<svg width="353" height="77" viewBox="0 0 353 77" fill="none" xmlns="http://www.w3.org/2000/svg">
<path d="M138.008 27.208L138.56 25.456C139.496 26.056 140.84 26.512 142.28 26.512C144.416 26.512 145.664 25.384 145.664 23.752C145.664 22.264 144.8 21.376 142.616 20.56C139.976 19.6 138.344 18.208 138.344 15.952C138.344 13.432 140.432 11.56 143.576 11.56C145.208 11.56 146.432 11.944 147.128 12.352L146.552 14.056C146.048 13.744 144.968 13.288 143.504 13.288C141.296 13.288 140.456 14.608 140.456 15.712C140.456 17.224 141.44 17.968 143.672 18.832C146.408 19.888 147.776 21.208 147.776 23.584C147.776 26.08 145.952 28.264 142.136 28.264C140.576 28.264 138.872 27.784 138.008 27.208ZM152.7 28H150.588V16.384H152.7V28ZM151.644 11.8C152.412 11.8 152.94 12.376 152.94 13.12C152.94 13.84 152.436 14.416 151.596 14.416C150.828 14.416 150.324 13.84 150.324 13.12C150.324 12.4 150.852 11.8 151.644 11.8ZM155.421 27.448L155.925 25.864C156.573 26.248 157.677 26.68 158.733 26.68C160.245 26.68 160.965 25.936 160.965 24.952C160.965 23.944 160.365 23.416 158.829 22.84C156.717 22.072 155.733 20.944 155.733 19.552C155.733 17.68 157.269 16.144 159.741 16.144C160.917 16.144 161.949 16.456 162.573 16.864L162.069 18.4C161.613 18.112 160.773 17.704 159.693 17.704C158.445 17.704 157.773 18.424 157.773 19.288C157.773 20.248 158.445 20.68 159.957 21.28C161.949 22.024 163.005 23.032 163.005 24.76C163.005 26.824 161.397 28.264 158.685 28.264C157.413 28.264 156.237 27.928 155.421 27.448ZM166.209 14.224L168.273 13.6V16.384H171.297V17.992H168.273V24.256C168.273 25.696 168.681 26.512 169.857 26.512C170.433 26.512 170.769 26.464 171.081 26.368L171.177 27.976C170.769 28.12 170.121 28.264 169.305 28.264C168.321 28.264 167.529 27.928 167.025 27.376C166.449 26.728 166.209 25.696 166.209 24.328V17.992H164.409V16.384H166.209V14.224ZM182.869 22.576H174.709C174.757 25.432 176.557 26.608 178.693 26.608C180.205 26.608 181.141 26.344 181.909 26.008L182.293 27.52C181.549 27.856 180.253 28.264 178.405 28.264C174.829 28.264 172.693 25.888 172.693 22.384C172.693 18.88 174.757 16.144 178.141 16.144C181.957 16.144 182.941 19.456 182.941 21.592C182.941 22.024 182.917 22.336 182.869 22.576ZM174.733 21.064H180.901C180.925 19.744 180.349 17.656 177.973 17.656C175.813 17.656 174.901 19.6 174.733 21.064ZM185.557 28V19.528C185.557 18.304 185.509 17.344 185.461 16.384H187.309L187.405 18.28H187.477C188.125 17.176 189.205 16.144 191.149 16.144C192.709 16.144 193.909 17.104 194.413 18.472H194.461C194.821 17.8 195.301 17.32 195.781 16.96C196.477 16.432 197.221 16.144 198.325 16.144C199.885 16.144 202.165 17.152 202.165 21.184V28H200.101V21.448C200.101 19.192 199.261 17.872 197.581 17.872C196.357 17.872 195.445 18.76 195.061 19.768C194.965 20.08 194.893 20.44 194.893 20.824V28H192.829V21.04C192.829 19.192 192.013 17.872 190.405 17.872C189.109 17.872 188.125 18.928 187.789 19.984C187.669 20.272 187.621 20.656 187.621 21.016V28H185.557ZM213.732 20.872V25.216C213.732 26.224 213.78 27.208 213.9 28H212.004L211.836 26.536H211.764C211.116 27.448 209.868 28.264 208.212 28.264C205.86 28.264 204.66 26.608 204.66 24.928C204.66 22.12 207.156 20.584 211.644 20.608V20.368C211.644 19.432 211.38 17.68 209.004 17.704C207.9 17.704 206.772 18.016 205.956 18.568L205.476 17.152C206.436 16.552 207.852 16.144 209.316 16.144C212.868 16.144 213.732 18.568 213.732 20.872ZM211.692 24.088V22.072C209.388 22.024 206.772 22.432 206.772 24.688C206.772 26.08 207.684 26.704 208.74 26.704C210.276 26.704 211.26 25.744 211.596 24.76C211.668 24.52 211.692 24.28 211.692 24.088ZM230.156 10.96H232.244V25C232.244 26.032 232.292 27.208 232.34 28H230.468L230.372 25.984H230.3C229.676 27.28 228.284 28.264 226.388 28.264C223.58 28.264 221.396 25.888 221.396 22.36C221.372 18.496 223.796 16.144 226.604 16.144C228.404 16.144 229.58 16.984 230.108 17.896H230.156V10.96ZM230.156 23.128V21.112C230.156 20.848 230.132 20.488 230.06 20.224C229.748 18.904 228.596 17.8 227.012 17.8C224.828 17.8 223.532 19.72 223.532 22.264C223.532 24.616 224.708 26.56 226.964 26.56C228.38 26.56 229.676 25.6 230.06 24.04C230.132 23.752 230.156 23.464 230.156 23.128ZM245.119 22.576H236.959C237.007 25.432 238.807 26.608 240.943 26.608C242.455 26.608 243.391 26.344 244.159 26.008L244.543 27.52C243.799 27.856 242.503 28.264 240.655 28.264C237.079 28.264 234.943 25.888 234.943 22.384C234.943 18.88 237.007 16.144 240.391 16.144C244.207 16.144 245.191 19.456 245.191 21.592C245.191 22.024 245.167 22.336 245.119 22.576ZM236.983 21.064H243.151C243.175 19.744 242.599 17.656 240.223 17.656C238.063 17.656 237.151 19.6 236.983 21.064ZM265.301 19.504V27.28C264.365 27.64 262.493 28.168 260.309 28.168C257.861 28.168 255.845 27.544 254.261 26.032C252.869 24.688 252.005 22.528 252.005 20.008C252.005 15.184 255.341 11.656 260.765 11.656C262.637 11.656 264.125 12.064 264.821 12.4L264.293 14.104C263.429 13.696 262.349 13.408 260.717 13.408C256.781 13.408 254.213 15.856 254.213 19.912C254.213 24.016 256.661 26.44 260.453 26.44C261.821 26.44 262.757 26.248 263.237 26.008V21.184H259.973V19.504H265.301ZM277.861 22.576H269.701C269.749 25.432 271.549 26.608 273.685 26.608C275.197 26.608 276.133 26.344 276.901 26.008L277.285 27.52C276.541 27.856 275.245 28.264 273.397 28.264C269.821 28.264 267.685 25.888 267.685 22.384C267.685 18.88 269.749 16.144 273.133 16.144C276.949 16.144 277.933 19.456 277.933 21.592C277.933 22.024 277.909 22.336 277.861 22.576ZM269.725 21.064H275.893C275.917 19.744 275.341 17.656 272.965 17.656C270.805 17.656 269.893 19.6 269.725 21.064ZM279.757 27.448L280.261 25.864C280.909 26.248 282.013 26.68 283.069 26.68C284.581 26.68 285.301 25.936 285.301 24.952C285.301 23.944 284.701 23.416 283.165 22.84C281.053 22.072 280.069 20.944 280.069 19.552C280.069 17.68 281.605 16.144 284.077 16.144C285.253 16.144 286.285 16.456 286.909 16.864L286.405 18.4C285.949 18.112 285.109 17.704 284.029 17.704C282.781 17.704 282.109 18.424 282.109 19.288C282.109 20.248 282.781 20.68 284.293 21.28C286.285 22.024 287.341 23.032 287.341 24.76C287.341 26.824 285.733 28.264 283.021 28.264C281.749 28.264 280.573 27.928 279.757 27.448ZM290.545 14.224L292.609 13.6V16.384H295.633V17.992H292.609V24.256C292.609 25.696 293.017 26.512 294.193 26.512C294.769 26.512 295.105 26.464 295.417 26.368L295.513 27.976C295.105 28.12 294.457 28.264 293.641 28.264C292.657 28.264 291.865 27.928 291.361 27.376C290.785 26.728 290.545 25.696 290.545 24.328V17.992H288.745V16.384H290.545V14.224ZM300.122 28H298.01V16.384H300.122V28ZM299.066 11.8C299.834 11.8 300.362 12.376 300.362 13.12C300.362 13.84 299.858 14.416 299.018 14.416C298.25 14.416 297.746 13.84 297.746 13.12C297.746 12.4 298.274 11.8 299.066 11.8ZM308.555 16.144C311.891 16.144 314.147 18.568 314.147 22.096C314.147 26.392 311.147 28.264 308.363 28.264C305.243 28.264 302.795 25.96 302.795 22.288C302.795 18.424 305.363 16.144 308.555 16.144ZM308.507 17.728C306.035 17.728 304.955 20.032 304.955 22.216C304.955 24.76 306.395 26.68 308.459 26.68C310.475 26.68 311.987 24.784 311.987 22.168C311.987 20.2 311.003 17.728 308.507 17.728ZM309.299 11.368H311.627L308.699 14.8H307.211L309.299 11.368ZM316.807 28V19.528C316.807 18.304 316.783 17.344 316.711 16.384H318.583L318.703 18.304H318.751C319.327 17.224 320.671 16.144 322.591 16.144C324.199 16.144 326.695 17.104 326.695 21.088V28H324.583V21.304C324.583 19.432 323.887 17.872 321.895 17.872C320.527 17.872 319.447 18.856 319.063 20.032C318.967 20.296 318.919 20.656 318.919 21.016V28H316.807ZM146.672 39.96H148.76V54C148.76 55.032 148.808 56.208 148.856 57H146.984L146.888 54.984H146.816C146.192 56.28 144.8 57.264 142.904 57.264C140.096 57.264 137.912 54.888 137.912 51.36C137.888 47.496 140.312 45.144 143.12 45.144C144.92 45.144 146.096 45.984 146.624 46.896H146.672V39.96ZM146.672 52.128V50.112C146.672 49.848 146.648 49.488 146.576 49.224C146.264 47.904 145.112 46.8 143.528 46.8C141.344 46.8 140.048 48.72 140.048 51.264C140.048 53.616 141.224 55.56 143.48 55.56C144.896 55.56 146.192 54.6 146.576 53.04C146.648 52.752 146.672 52.464 146.672 52.128ZM161.635 51.576H153.475C153.523 54.432 155.323 55.608 157.459 55.608C158.971 55.608 159.907 55.344 160.675 55.008L161.059 56.52C160.315 56.856 159.019 57.264 157.171 57.264C153.595 57.264 151.459 54.888 151.459 51.384C151.459 47.88 153.523 45.144 156.907 45.144C160.723 45.144 161.707 48.456 161.707 50.592C161.707 51.024 161.683 51.336 161.635 51.576ZM153.499 50.064H159.667C159.691 48.744 159.115 46.656 156.739 46.656C154.579 46.656 153.667 48.6 153.499 50.064ZM169.48 56.952V41.064C170.752 40.848 172.264 40.704 173.92 40.704C176.92 40.704 179.056 41.424 180.472 42.72C181.936 44.04 182.776 45.912 182.776 48.528C182.776 51.168 181.936 53.328 180.448 54.816C178.912 56.328 176.416 57.144 173.272 57.144C171.76 57.144 170.536 57.072 169.48 56.952ZM171.568 42.576V55.368C172.096 55.44 172.864 55.464 173.68 55.464C178.168 55.464 180.568 52.968 180.568 48.6C180.592 44.784 178.432 42.36 174.016 42.36C172.936 42.36 172.12 42.456 171.568 42.576ZM194.822 51.576H186.662C186.71 54.432 188.51 55.608 190.646 55.608C192.158 55.608 193.094 55.344 193.862 55.008L194.246 56.52C193.502 56.856 192.206 57.264 190.358 57.264C186.782 57.264 184.646 54.888 184.646 51.384C184.646 47.88 186.71 45.144 190.094 45.144C193.91 45.144 194.894 48.456 194.894 50.592C194.894 51.024 194.87 51.336 194.822 51.576ZM186.686 50.064H192.854C192.878 48.744 192.302 46.656 189.926 46.656C187.766 46.656 186.854 48.6 186.686 50.064ZM197.51 57V48.528C197.51 47.304 197.486 46.344 197.414 45.384H199.286L199.406 47.304H199.454C200.03 46.224 201.374 45.144 203.294 45.144C204.902 45.144 207.398 46.104 207.398 50.088V57H205.286V50.304C205.286 48.432 204.59 46.872 202.598 46.872C201.23 46.872 200.15 47.856 199.766 49.032C199.67 49.296 199.622 49.656 199.622 50.016V57H197.51ZM220.542 45.384V53.808C220.542 55.032 220.566 56.088 220.638 57H218.766L218.646 55.104H218.598C218.07 56.04 216.822 57.264 214.758 57.264C212.934 57.264 210.75 56.232 210.75 52.176V45.384H212.862V51.792C212.862 54 213.558 55.512 215.454 55.512C216.87 55.512 217.854 54.528 218.238 53.568C218.358 53.28 218.43 52.896 218.43 52.488V45.384H220.542ZM224.041 57V48.528C224.041 47.304 224.017 46.344 223.945 45.384H225.817L225.937 47.304H225.985C226.561 46.224 227.905 45.144 229.825 45.144C231.433 45.144 233.929 46.104 233.929 50.088V57H231.817V50.304C231.817 48.432 231.121 46.872 229.129 46.872C227.761 46.872 226.681 47.856 226.297 49.032C226.201 49.296 226.153 49.656 226.153 50.016V57H224.041ZM245.274 55.008L245.634 56.592C245.082 56.856 243.858 57.264 242.298 57.264C238.794 57.264 236.514 54.888 236.514 51.336C236.514 47.76 238.962 45.144 242.754 45.144C244.002 45.144 245.106 45.456 245.682 45.768L245.202 47.376C244.698 47.112 243.906 46.824 242.754 46.824C240.09 46.824 238.65 48.816 238.65 51.216C238.65 53.904 240.378 55.56 242.682 55.56C243.882 55.56 244.674 55.272 245.274 55.008ZM250.223 57H248.111V45.384H250.223V57ZM249.167 40.8C249.935 40.8 250.463 41.376 250.463 42.12C250.463 42.84 249.959 43.416 249.119 43.416C248.351 43.416 247.847 42.84 247.847 42.12C247.847 41.4 248.375 40.8 249.167 40.8ZM261.896 49.872V54.216C261.896 55.224 261.944 56.208 262.064 57H260.168L260 55.536H259.928C259.28 56.448 258.032 57.264 256.376 57.264C254.024 57.264 252.824 55.608 252.824 53.928C252.824 51.12 255.32 49.584 259.808 49.608V49.368C259.808 48.432 259.544 46.68 257.168 46.704C256.064 46.704 254.936 47.016 254.12 47.568L253.64 46.152C254.6 45.552 256.016 45.144 257.48 45.144C261.032 45.144 261.896 47.568 261.896 49.872ZM259.856 53.088V51.072C257.552 51.024 254.936 51.432 254.936 53.688C254.936 55.08 255.848 55.704 256.904 55.704C258.44 55.704 259.424 54.744 259.76 53.76C259.832 53.52 259.856 53.28 259.856 53.088ZM264.523 56.448L265.027 54.864C265.675 55.248 266.779 55.68 267.835 55.68C269.347 55.68 270.067 54.936 270.067 53.952C270.067 52.944 269.467 52.416 267.931 51.84C265.819 51.072 264.835 49.944 264.835 48.552C264.835 46.68 266.371 45.144 268.843 45.144C270.019 45.144 271.051 45.456 271.675 45.864L271.171 47.4C270.715 47.112 269.875 46.704 268.795 46.704C267.547 46.704 266.875 47.424 266.875 48.288C266.875 49.248 267.547 49.68 269.059 50.28C271.051 51.024 272.107 52.032 272.107 53.76C272.107 55.824 270.499 57.264 267.787 57.264C266.515 57.264 265.339 56.928 264.523 56.448Z" fill="white"/>
<path d="M2.56 52.952L4.544 44.952C7.104 46.296 11.2 47.64 15.36 47.64C19.84 47.64 22.208 45.784 22.208 42.968C22.208 40.28 20.16 38.744 14.976 36.952C7.808 34.392 3.072 30.424 3.072 24.152C3.072 16.792 9.28 11.224 19.392 11.224C24.32 11.224 27.84 12.184 30.4 13.4L28.224 21.208C26.56 20.376 23.424 19.16 19.264 19.16C15.04 19.16 12.992 21.144 12.992 23.32C12.992 26.072 15.36 27.288 20.992 29.4C28.608 32.216 32.128 36.184 32.128 42.264C32.128 49.496 26.624 55.64 14.784 55.64C9.856 55.64 4.992 54.296 2.56 52.952ZM74.8185 30.296V53.016C71.8105 54.04 66.1145 55.448 60.4185 55.448C52.5465 55.448 46.8505 53.464 42.8825 49.688C38.9785 45.912 36.8025 40.28 36.8025 33.944C36.8665 19.608 47.2985 11.416 61.4425 11.416C67.0105 11.416 71.2985 12.504 73.4105 13.464L71.3625 21.336C68.9945 20.248 66.1145 19.48 61.3785 19.48C53.2505 19.48 47.0425 24.024 47.0425 33.432C47.0425 42.392 52.6745 47.576 60.6745 47.576C62.8505 47.576 64.6425 47.32 65.4105 47V37.912H58.7545V30.296H74.8185ZM82.4115 54.808V12.504C85.9955 11.928 90.6675 11.544 95.5315 11.544C103.788 11.544 109.164 13.08 113.26 16.152C117.74 19.48 120.556 24.792 120.556 32.408C120.556 40.664 117.548 46.36 113.451 49.88C108.908 53.656 101.932 55.448 93.4835 55.448C88.4275 55.448 84.7795 55.128 82.4115 54.808ZM92.1395 19.416V47.64C92.9715 47.832 94.3795 47.832 95.5315 47.832C104.428 47.896 110.252 43.032 110.252 32.728C110.252 23.768 105.004 19.032 96.5555 19.032C94.4435 19.032 92.9715 19.224 92.1395 19.416Z" fill="white"/>
</svg>
