<?xml version="1.0" encoding="UTF-8" standalone="no"?>
<!-- Created with Inkscape (http://www.inkscape.org/) -->

<svg
   version="1.1"
   id="svg1"
   width="1838.599"
   height="665.09576"
   viewBox="0 0 1838.599 665.09577"
   xmlns="http://www.w3.org/2000/svg"
   xmlns:svg="http://www.w3.org/2000/svg">
  <defs
     id="defs1" />
  <g
     id="g1"
     transform="translate(-104.06776,-6.3227668)">
    <path
       style="fill:#ffffff;fill-opacity:1"
       d="m 1311.0896,670.08316 c -8.595,-1.95918 -18.0145,-5.77654 -22.203,-8.99798 -2.36,-1.8152 -2.3435,-2.05655 0.4651,-6.81683 1.6014,-2.71425 3.0769,-4.935 3.2787,-4.935 0.2019,0 3.1528,1.557 6.5577,3.46 11.598,6.48224 26.3136,8.81165 36.9687,5.85196 12.7523,-3.54224 19.5108,-12.73002 20.7909,-28.26424 l 0.8005,-9.71438 -6.3065,5.78548 c -9.8367,9.02395 -16.2606,11.29571 -30.0735,10.63531 -9.5131,-0.45483 -12.6334,-1.18482 -17.6627,-4.1322 -14.369,-8.4208 -22.0065,-22.78181 -20.7094,-38.94057 1.2369,-15.40913 8.9738,-27.18437 22.0951,-33.62791 6.4994,-3.19168 9.1854,-3.71784 18.9088,-3.70412 12.7403,0.018 18.5412,2.26382 28.0601,10.86357 l 5.2732,4.76407 v -7.56154 -7.56154 l 6.3334,0.40639 6.3333,0.40639 v 42 42 l -3.7479,7.63233 c -4.4095,8.97947 -12.1241,16.05135 -20.7409,19.01292 -8.8018,3.02514 -24.5689,3.68378 -34.4216,1.43789 z m 30.0192,-48.22098 c 21.7396,-10.83331 21.4954,-38.60329 -0.4421,-50.27801 -7.9638,-4.23816 -21.9901,-4.04312 -29.9454,0.41639 -20.3969,11.43386 -17.9638,43.08956 3.9852,51.84934 6.6464,2.65254 18.9492,1.7263 26.4023,-1.98772 z M 246.96906,661.00002 C 245.38238,659.05193 240,641.40911 240,638.15627 c 0,-1.35706 1.42822,-2.51061 3.66667,-2.9615 2.01666,-0.40622 12.36666,-2.95118 23,-5.65546 L 286,624.62243 l 18.94833,8.02213 c 10.42157,4.41217 18.97157,8.37146 19,8.79842 0.0899,1.35009 -24.06961,8.55873 -53.51035,15.96626 -24.14106,6.07409 -21.74492,5.70748 -23.46892,3.59078 z m 165.59656,-4.28378 c -27.66659,-7.08288 -58.4647,-17.03724 -85.23229,-27.5482 -22.286,-8.75115 -83.04585,-38.5004 -86.5568,-42.37996 -2.13149,-2.35526 -2.0259,-3.09182 1.90416,-13.28279 2.28843,-5.93409 4.66228,-11.09921 5.27523,-11.47803 0.61295,-0.37883 13.32363,5.56823 28.24594,13.21568 47.35454,24.26845 95.53375,42.4239 144.98759,54.63593 13.48753,3.33058 24.79327,6.32609 25.12388,6.6567 1.33388,1.33388 -7.12032,25.45184 -9.01786,25.72596 -1.07917,0.1559 -12.20761,-2.33948 -24.72985,-5.54529 z M 816.66667,645.4944 c -21.67109,-5.72611 -35.08664,-28.21435 -31.2061,-52.31025 4.31646,-26.80282 29.51488,-43.27743 53.62751,-35.06143 3.42639,1.16748 9.23327,4.82309 12.90419,8.12356 l 6.6744,6.00086 V 547.45691 522.66668 H 865.33333 872 v 60.66667 60.66667 h -6.66667 -6.66666 v -7.49411 -7.49411 l -5.27832,5.43894 c -2.90307,2.99142 -7.83542,6.74349 -10.96078,8.33792 -6.14889,3.13693 -19.01473,4.48827 -25.7609,2.70574 z m 19.84821,-12.71532 c 14.0295,-4.22226 22.15179,-15.76063 22.15179,-31.46843 0,-34.33554 -42.65808,-45.82832 -56.86492,-15.32034 -6.65021,14.28076 -2.52259,33.8015 8.94202,42.28947 3.97034,2.9395 12.69667,6.24412 16.71099,6.32838 1.53345,0.0322 5.6105,-0.7909 9.06012,-1.82908 z m 96.15179,12.02251 c -8.89458,-2.81299 -13.37167,-5.71091 -19.70391,-12.75388 -21.28754,-23.67686 -10.99994,-65.40005 18.26868,-74.09189 17.65805,-5.24388 35.41697,0.80434 44.66136,15.21047 4.5179,7.04054 8.1072,19.33981 8.1072,27.78053 v 5.71986 h -34 c -38.68284,0 -36.83752,-0.67416 -31.16811,11.38699 4.90521,10.43538 15.1153,16.61302 27.45717,16.61302 7.14273,0 13.17105,-2.19027 20.38745,-7.40737 l 6.00984,-4.34482 3.89464,3.35004 c 4.60989,3.96525 4.03134,5.53599 -4.43267,12.03463 -10.01919,7.69271 -26.91785,10.47583 -39.48165,6.50242 z m 36.66666,-51.97207 c 0,-7.91615 -8.09961,-19.89299 -15.56158,-23.0108 -5.19895,-2.17226 -14.81292,-2.36609 -20.01828,-0.40359 -8.10861,3.05706 -17.64772,15.75038 -17.72419,23.58489 l -0.0293,3 h 26.66667 26.66666 z m 129.33337,52.45776 c -3.3,-0.58616 -8.7,-2.03143 -12,-3.21171 -6.9338,-2.47992 -22.6926,-12.74648 -22.6125,-14.73163 0.03,-0.73915 1.7628,-3.34106 3.8512,-5.78201 l 3.797,-4.43809 6.4822,4.95579 c 10.0462,7.68071 17.006,10.22152 29.9433,10.93138 9.5644,0.52481 12.4823,0.1772 17.6311,-2.10035 15.6347,-6.91595 15.4195,-26.61135 -0.3634,-33.2676 -2.6009,-1.09691 -11.3249,-3.73248 -19.3867,-5.85683 -8.0618,-2.12435 -17.2554,-5.11993 -20.4302,-6.65684 -18.9691,-9.18276 -23.4615,-31.04123 -9.6131,-46.7738 9.2401,-10.49739 24.6883,-14.80237 42.2076,-11.76215 10.3475,1.79565 18.9386,5.23741 25.4276,10.18684 4.7072,3.59039 4.6663,4.2727 -0.6596,11.00707 l -2.468,3.12067 -6.4299,-4.07773 c -9.9672,-6.32101 -18.1017,-8.51946 -29.4098,-7.94842 -10.4512,0.52776 -14.5494,2.48596 -19.7329,9.4287 -3.4614,4.63611 -3.4337,13.44463 0.057,18.12794 4.0619,5.44975 9.1964,7.84787 26.4788,12.36727 19.1211,5.00018 26.2119,8.17589 32.6657,14.62969 12.1707,12.17072 8.8965,35.71986 -6.3642,45.7732 -9.6252,6.34087 -24.5354,8.66055 -39.0712,6.07861 z m 107.2047,-0.97666 c -13.1254,-4.69148 -23.9218,-16.57093 -27.2826,-30.01933 -2.2123,-8.85281 -1.0218,-25.50298 2.3682,-33.12115 6.2224,-13.98336 19.6332,-23.65611 34.4466,-24.84519 23.819,-1.91196 41.4642,14.51015 42.9881,40.0084 l 0.6176,10.33333 h -34.1713 c -18.7942,0 -34.1713,0.52457 -34.1713,1.1657 0,3.71854 4.7174,13.46012 8.39,17.32549 11.3345,11.92945 29.0036,12.74677 43.0914,1.99327 l 6.2109,-4.74086 4.1538,4.21903 4.1539,4.21904 -4.6667,4.05883 c -12.0712,10.49889 -31.8077,14.52223 -46.1286,9.40344 z m 38.7848,-52.64394 c -3.0077,-14.66131 -12.7628,-23.66666 -25.637,-23.66666 -12.5216,0 -21.7643,6.99562 -26.3264,19.92586 -1.1144,3.15851 -2.0261,6.26731 -2.0261,6.90844 0,0.64113 12.3476,1.1657 27.4392,1.1657 h 27.4393 z m 182.3246,53.77345 c -7.0983,-1.81215 -14.5808,-7.61735 -18.5738,-14.41026 l -3.7403,-6.36318 -0.4166,-33.66667 -0.4165,-33.66667 h 6.7499 6.7498 l 0.01,28.33333 c 0,15.58334 0.5982,30.45995 1.3203,33.05915 2.6786,9.64197 15.725,17.33847 25.7838,15.21067 7.5511,-1.59734 14.3494,-6.34689 18.0192,-12.58882 3.4879,-5.93263 3.542,-6.40917 3.9828,-35.08275 l 0.4469,-29.06841 6.2198,0.40175 6.2197,0.40175 0.3518,43 0.3518,43 h -6.6851 -6.6851 v -6.15515 -6.15515 l -5.2537,4.74639 c -2.8895,2.61051 -7.2124,5.75928 -9.6064,6.99727 -4.9692,2.56963 -18.376,3.65335 -24.8258,2.00675 z M 1666,645.4944 c -21.6711,-5.72611 -35.0866,-28.21435 -31.2061,-52.31025 4.3165,-26.80282 29.5149,-43.27743 53.6275,-35.06143 3.4264,1.16748 9.2333,4.82309 12.9042,8.12356 l 6.6744,6.00086 v -24.79023 -24.79023 h 6.6667 6.6666 v 60.66667 60.66667 H 1714.6667 1708 v -7.49411 -7.49411 l -5.2783,5.43894 c -2.9031,2.99142 -7.8354,6.74349 -10.9608,8.33792 -6.1489,3.13693 -19.0147,4.48827 -25.7609,2.70574 z m 19.8482,-12.71532 C 1699.8777,628.55682 1708,617.01845 1708,601.31065 c 0,-34.33554 -42.6581,-45.82832 -56.8649,-15.32034 -6.6502,14.28076 -2.5226,33.8015 8.942,42.28947 3.9703,2.9395 12.6967,6.24412 16.711,6.32838 1.5334,0.0322 5.6105,-0.7909 9.0601,-1.82908 z m 87.3022,13.02923 c -1.9339,-0.34268 -6.6872,-2.53973 -10.563,-4.88234 -8.8309,-5.33768 -12.5351,-11.91623 -12.5397,-22.27007 -0.01,-18.57718 17.022,-29.40187 43.2856,-27.51301 6.2334,0.44829 13.2834,1.38266 15.6667,2.07636 3.9504,1.14983 4.3327,1.00442 4.3259,-1.64564 -0.024,-9.24814 -5.7415,-17.79718 -13.9881,-20.91412 -6.2486,-2.36182 -20.7716,-1.77555 -29.5289,1.19204 -4.2949,1.4554 -8.177,2.2342 -8.6269,1.73067 -0.4499,-0.50353 -1.4674,-2.8618 -2.2611,-5.2406 -1.6909,-5.06769 -1.1645,-5.50943 10.6585,-8.94457 8.7819,-2.55156 26.0111,-2.99479 33.8947,-0.87197 8.1817,2.20313 15.6605,8.28907 19.2435,15.65969 2.9845,6.13932 3.1794,8.15572 3.6887,38.1486 l 0.5377,31.66667 h -6.8053 -6.8054 v -5.45186 -5.45186 l -4.178,3.51559 c -7.2898,6.13397 -14.1883,8.86856 -23.607,9.35797 -4.8849,0.25382 -10.4639,0.18112 -12.3979,-0.16155 z m 26.6149,-13.70178 c 9.3326,-4.78625 13.568,-11.65671 13.568,-22.00924 v -5.72913 l -7.5557,-1.51741 c -11.5979,-2.32919 -25.5206,-1.87827 -31.9343,1.03427 -6.8878,3.12785 -9.8433,7.27479 -9.8433,13.81122 0,9.05014 3.2155,12.87464 14.6667,17.44458 3.4681,1.38407 15.9967,-0.41771 21.0986,-3.03429 z m 83.3446,12.09207 c -19.2915,-6.66667 -29.3885,-23.2269 -28.1816,-46.22109 0.9304,-17.72623 8.7051,-30.10707 24.0116,-38.23708 4.6674,-2.47905 7.8233,-3.04175 17.0601,-3.04175 12.8559,0 19.0254,2.41559 27.2979,10.68815 l 4.7021,4.70208 v -24.71112 -24.71111 h 7.3333 7.3334 v 60.66667 60.66667 H 1935.3333 1928 v -7.08822 -7.08821 l -6.5828,6.34499 c -10.4352,10.05815 -24.1308,12.92905 -38.3073,8.03002 z m 28.7654,-13.4683 c 19.0004,-9.6933 22.9285,-38.77841 7.2468,-53.6588 -17.6161,-16.71598 -44.8732,-8.08315 -49.8274,15.7813 -5.8789,28.31853 18.6127,50.10501 42.5806,37.8775 z m -397.2086,-30.06362 v -43.33333 h 6.6666 6.6667 v 10.20005 10.20005 l 3.9088,-5.396 c 5.2019,-7.18092 11.9334,-12.14964 19.5763,-14.44983 10.5805,-3.18426 11.1816,-2.90588 11.1816,5.17896 v 7.06657 l -7.7387,1.59839 c -8.509,1.75751 -14.7476,5.69865 -19.7469,12.47487 -5.6993,7.72498 -7.1811,15.71087 -7.1811,38.70228 v 21.09133 h -6.6667 -6.6666 z m 74.6666,0 v -43.33333 h 6.6667 6.6667 v 43.33333 43.33334 H 1596 h -6.6667 z m -1209.66663,5.10413 c -10.08334,-3.31042 -18.33109,-6.41311 -18.32834,-6.89487 0.003,-0.48176 2.85275,-2.01906 6.33333,-3.41623 11.24295,-4.51312 48.71247,-22.78161 58.71868,-28.62864 5.34802,-3.12507 10.39483,-5.45822 11.21512,-5.18479 0.82029,0.27343 3.47051,5.56488 5.88937,11.75878 l 4.39793,11.26162 -3.22279,2.66667 c -2.97256,2.45963 -44.93784,24.79935 -46.13897,24.56153 -0.29205,-0.0578 -8.781,-2.81365 -18.86433,-6.12407 z M 213.24356,568.08447 c -21.80469,-17.60771 -54.43139,-55.57478 -52.63137,-61.24614 1.22187,-3.84976 16.25276,-17.60103 18.3565,-16.79375 1.0115,0.38815 2.89904,2.50008 4.19453,4.69318 7.58735,12.84435 31.61805,39.49995 45.83678,50.84358 4.58333,3.65656 8.33333,7.43869 8.33333,8.40474 0,3.54846 -8.98483,22.6907 -10.79635,23.00168 -1.02867,0.17659 -7.01071,-3.82989 -13.29342,-8.90329 z m 244.48703,7.58221 c -2.1742,-2.87 -8.39726,-18.39095 -8.39726,-20.94363 0,-1.41192 4.76996,-6.48415 11.35597,-12.07558 13.06471,-11.09176 25.83692,-25.16541 37.87514,-41.73448 4.62725,-6.3688 8.8093,-11.57964 9.29346,-11.57964 0.48416,0 4.98604,4.13746 10.00419,9.19436 l 9.12391,9.19436 -4.40303,6.47231 c -7.36988,10.83347 -19.99728,25.93092 -30.55969,36.53747 -9.98888,10.03061 -29.88987,26.6015 -31.94737,26.6015 -0.5955,0 -1.65089,-0.75 -2.34532,-1.66667 z M 323.33333,560.39283 c -6.45766,-0.87336 -25.22169,-5.97799 -26.6,-7.23637 -0.71731,-0.65489 19.52201,-1.10927 46.66667,-1.04768 44.29974,0.10052 47.57958,0.26403 43.26667,2.15701 -12.68255,5.5665 -44.6272,8.65691 -63.33334,6.12704 z m -57.40562,-22.05948 -6.59438,-4.33333 42.4297,-0.3522 c 23.33633,-0.1937 61.12325,-0.1937 83.97093,0 l 41.54123,0.3522 -6.75432,4.33333 -6.75433,4.33333 h -70.62223 -70.62223 z m 1323.40559,-5.66667 v -7.33333 h 7.3334 7.3333 v 7.33333 7.33334 h -7.3333 -7.3334 z M 241.65465,520.29748 c -2.38995,-1.99694 -4.33995,-4.0808 -4.33334,-4.6308 0.007,-0.55 47.82972,-1 106.27358,-1 h 106.26155 l -4.52311,4.66667 -4.52311,4.66667 -97.40511,-0.0359 L 246,523.92828 Z M 223.58972,501.60096 C 221.61537,499.54018 220,497.43693 220,496.92706 c 0,-0.50988 55.5769,-0.92705 123.50421,-0.92705 h 123.50422 l -3.34167,4.33334 -3.34166,4.33333 -116.57283,0.34057 -116.57283,0.34057 z m 299.71313,-14.965 -9.06802,-9.13804 7.39259,-15.08229 c 7.53416,-15.37113 15.06507,-34.4017 18.98008,-47.96259 1.19834,-4.15083 2.94022,-7.83915 3.87086,-8.19627 2.698,-1.03532 22.7996,7.84089 23.29008,10.28415 1.47216,7.33327 -28.19776,76.47026 -33.72762,78.59227 -0.91847,0.35245 -5.75056,-3.4713 -10.73797,-8.49723 z m -377.50213,-0.90378 c -11.6776,-20.88151 -27.85475,-62.11618 -26.89832,-68.56236 0.58105,-3.91612 20.80702,-12.77588 23.20525,-10.16479 0.83941,0.91391 4.13237,9.41391 7.31771,18.88889 3.18533,9.47498 9.59168,25.03466 14.23633,34.57706 l 8.44481,17.34983 -8.34806,8.42294 c -4.59144,4.63261 -9.38604,8.42293 -10.65467,8.42293 -1.45999,0 -4.14047,-3.27927 -7.30305,-8.9345 z m 63.15342,-2.93789 c -1.25811,-2.12981 -2.28747,-4.22981 -2.28747,-4.66667 0,-0.43685 61.5,-0.79427 136.66666,-0.79427 75.16667,0 136.66667,0.35738 136.66667,0.79417 0,0.4368 -1.24086,2.5368 -2.75746,4.66667 l -2.75746,3.87249 H 342.86335 211.24162 Z m 960.52366,-10.82564 c -5.3578,-1.12307 -19.4478,-7.23425 -24.0507,-10.4314 -1.59,-1.10439 -1.3165,-2.0972 1.6483,-5.9843 l 3.5546,-4.66024 9.0183,4.62066 c 18.5783,9.51882 35.9425,6.86592 38.4918,-5.88076 1.3479,-6.73902 -4.0425,-10.93554 -21.532,-16.76329 -8.0832,-2.69345 -16.8411,-6.35428 -19.4619,-8.13516 -6.5563,-4.45512 -9.6868,-11.43426 -8.6201,-19.21726 2.3615,-17.22871 19.6304,-26.03307 41.169,-20.98953 8.1242,1.90239 19.6382,6.64571 19.6382,8.09019 0,0.98367 -5.5714,10.04912 -6.176,10.04912 -0.3186,0 -3.6417,-1.55186 -7.3847,-3.44857 -16.298,-8.25882 -34.4393,-4.30136 -34.4393,7.51283 0,5.39002 5.2317,9.09328 19.5797,13.85954 16.7476,5.56341 20.3561,7.46577 25.6946,13.54602 4.1282,4.70173 4.3126,5.3696 3.8316,13.88191 -0.6063,10.72886 -4.4819,16.81742 -13.4768,21.17177 -6.7513,3.26827 -19.1624,4.52292 -27.4846,2.77847 z m 91.0084,0.15787 c -6.541,-1.65933 -11.9876,-6.27069 -14.3345,-12.13629 C 1244.4,455.61251 1244,449.16404 1244,425.30636 v -29.30635 h -6 -6 v -6 -6 h 6 6 v -12.66667 -12.66666 h 6.6667 6.6666 v 12.66666 12.66667 H 1270.6667 1284 v 6 6 h -13.3333 -13.3334 V 423.421 c 0,27.7292 0.53,31.27072 5.2178,34.86994 2.5575,1.9636 13.2987,2.20712 18.0288,0.40874 3.3572,-1.27642 3.4201,-1.19 3.4201,4.69967 0,5.1477 -0.4661,6.1772 -3.2811,7.24748 -4.9867,1.89592 -15.5474,2.66826 -20.2327,1.47969 z M 1338,472.1673 c -12.1522,-3.22991 -22.3763,-11.90445 -28.3374,-24.04265 -3.2159,-6.54842 -3.6626,-9.00618 -3.6626,-20.15267 0,-11.66098 0.3574,-13.42074 4.3893,-21.61071 7.8536,-15.95279 22.1427,-24.5194 38.9655,-23.36047 15.1137,1.04119 26.1158,8.11406 32.6356,20.98035 3.4086,6.72641 6.5181,20.36215 5.8013,25.43921 l -0.4584,3.24632 -34.2424,0.66667 -34.2425,0.66666 2.4775,7.31495 c 7.1138,21.00342 34.4116,26.88433 51.0372,10.99517 l 3.6964,-3.53268 4.3036,4.37128 4.3036,4.37129 -5.1922,4.54742 c -8.3208,7.28752 -15.541,10.12554 -27.1583,10.67505 -5.6739,0.26838 -12.1162,0.01 -14.3162,-0.57519 z m 35.3203,-52.50062 c -0.023,-5.29682 -6.1995,-16.51791 -11.1853,-20.32078 -9.07,-6.91798 -22.9656,-6.20232 -31.6342,1.62925 -5.8285,5.26567 -8.145,9.03946 -10.2462,16.69153 l -1.373,5 h 27.2259 27.2258 z m 192.4563,51.2785 c -11.527,-4.11716 -19.2634,-10.88258 -25.4757,-22.2785 -3.3027,-6.05856 -3.6342,-7.94368 -3.6342,-20.66667 0,-12.0909 0.422,-14.7908 3.0947,-19.79922 4.7125,-8.83081 13.0392,-17.07585 21.3833,-21.17349 6.5275,-3.20557 9.1085,-3.69396 19.522,-3.69396 10.143,0 13.1348,0.5353 19.3333,3.45911 8.863,4.18062 17.4108,12.47676 21.5833,20.94773 2.6309,5.34122 3.0824,8.3143 3.0767,20.25983 -0.01,15.92789 -1.8266,20.8726 -11.566,31.4386 -11.2853,12.24306 -31.4955,17.15775 -47.3174,11.50657 z m 25.193,-11.69416 c 13.3081,-4.53454 22.0419,-18.84688 20.6782,-33.88602 -3.3225,-36.6417 -52.2884,-41.68512 -61.0773,-6.29089 -6.4252,25.87533 16.2346,48.41056 40.3991,40.17691 z M 792,412.00001 v -58.66667 h 6.66357 6.66358 l 20.8838,31.33334 c 11.48609,17.23333 21.29116,31.33333 21.78905,31.33333 0.49789,0 10.30296,-14.1 21.78905,-31.33333 l 20.8838,-31.33334 H 897.33643 904 v 58.66667 58.66667 h -6.64939 -6.64939 L 890.35061,424.36471 890,378.06275 869.41986,408.36471 c -11.31908,16.66608 -21.03854,30.30197 -21.59879,30.30197 -0.56026,0 -10.1992,-13.46146 -21.41986,-29.91436 L 806,378.83796 l -0.35061,45.91436 -0.35061,45.91436 H 798.64939 792 Z m 150.66667,15.26028 V 383.8539 l 6.33333,0.40639 6.33333,0.40639 0.35181,43 0.3518,43 h -6.68514 -6.68513 z m 49.33333,0 V 383.8539 l 6.33333,0.40639 6.33337,0.40639 0.4097,6.41598 0.4098,6.41598 2.6877,-3.41692 c 7.1329,-9.06797 23.7249,-13.6565 36.4741,-10.08695 7.6977,2.15525 17.0135,10.3219 20.1336,17.65011 2.0527,4.821 2.5015,10.51749 2.9431,37.35513 l 0.5211,31.66667 h -7.4562 -7.4563 v -29.38645 c 0,-26.94885 -0.2256,-29.82878 -2.7204,-34.71897 -6.6316,-12.99896 -24.8245,-15.39938 -36.829,-4.85931 -7.9056,6.94118 -8.4506,9.58032 -8.4506,40.92191 v 28.04282 H 998.66667 992 Z m 109.6482,0.40639 0.3518,-43 h 6.6667 6.6666 l 0.3518,43 0.3518,43 h -7.3702 -7.3703 z M 1416,427.33335 v -43.33334 h 6.6667 6.6666 v 10.92771 10.92771 l 3.9821,-6.27901 c 5.7662,-9.09234 19.1323,-16.8778 29.0179,-16.90231 2.7392,-0.007 3,0.61436 3,7.14467 v 7.1521 l -6.0042,0.82298 c -12.0401,1.65027 -20.9111,8.49391 -26.1921,20.20615 -2.652,5.88177 -3.0707,9.37456 -3.556,29.66667 l -0.5501,23 H 1422.5154 1416 Z m 76,-0.0731 V 383.8539 l 6.3333,0.40639 6.3334,0.40639 0.3518,43 0.3518,43 H 1498.6851 1492 Z M 197.2595,464.33927 c -1.01233,-2.01992 -2.05985,-4.12259 -2.32783,-4.67259 -0.26797,-0.55 66.51801,-1 148.41329,-1 h 148.90051 l -2.53075,4.33333 -2.53075,4.33334 -144.04193,0.33925 -144.04194,0.33926 z M 185.26732,440.7348 c -13.37089,-29.48887 -22.42756,-68.71109 -24.7695,-107.27066 l -0.89873,-14.79746 h 57.53379 57.53379 v 46.66666 46.66667 H 279.33333 284 v -56 -56 h 4.66667 4.66666 v 56 56 H 298 h 4.66667 v -65.33333 -65.33334 h 6.21958 c 7.71362,0 24.26124,-8.49839 30.78042,-15.80796 L 344,260.66667 l 4.33333,4.81988 c 6.54388,7.27862 23.20688,15.84679 30.81813,15.84679 h 6.15651 l 0.34601,65 0.34602,65.00001 4.33333,0.41781 4.33334,0.41781 v -56.08448 -56.08448 h 4.65203 4.65204 l 0.34796,55.66667 0.34797,55.66667 h 4.38445 4.38444 l 0.28222,-46.00001 0.28222,-46 55.25167,-0.34833 c 30.38842,-0.19158 55.63628,0.10842 56.10636,0.66667 1.28081,1.52103 -0.93681,33.73763 -3.4086,49.5185 -3.57082,22.79757 -12.04056,51.32967 -21.48319,72.37065 l -3.49708,7.79252 H 343.06763 189.16609 Z M 376,377.42787 v -54.57213 l -7.66667,-1.72231 C 358.2729,318.87337 332.3549,318.89104 321,321.16571 l -9,1.80292 v 54.51569 54.51569 h 32 32 z m -120.30526,7.60459 0.36142,-26.30088 -3.69475,-0.99711 c -4.77075,-1.28749 -26.60115,-1.29239 -31.36141,-0.007 l -3.66667,0.99006 v 26.67788 26.67787 l 19,-0.36994 19,-0.36994 z m 214.97193,0.32629 V 358.71748 L 467,357.70243 c -5.24281,-1.45139 -30.90143,-1.00099 -32.47243,0.57001 -0.97044,0.97044 -1.85876,39.44035 -1.22524,53.06091 0.0171,0.36666 8.431,0.66666 18.69767,0.66666 h 18.66667 z M 350.54354,306.13107 c 5.89188,-6.27161 4.92862,-18.46121 -1.80765,-22.87498 -7.54165,-4.94148 -16.07161,2.94064 -14.96339,13.82694 1.10624,10.86679 10.36814,15.86362 16.77104,9.04804 z m -237.12672,93.42185 c -3.78419,-9.95317 -10.99854,-70.84116 -9.00821,-76.02787 0.69381,-1.80805 2.9352,-2.19171 12.80419,-2.19171 6.61686,0 12.33513,0.60188 12.79552,1.34679 0.45779,0.74073 1.3703,8.39074 2.02779,17 0.65748,8.60927 2.23203,22.25321 3.49898,30.31988 3.83331,24.40652 4.16808,23.15444 -7.53509,28.18218 -12.1561,5.22232 -13.0856,5.30969 -14.58318,1.37073 z m 444.93394,-1.27159 c -5.67375,-2.34702 -10.55293,-4.88499 -10.84263,-5.63994 -0.28971,-0.75495 0.5661,-7.05811 1.90178,-14.00701 2.09393,-10.8937 4.51174,-33.02515 5.60452,-51.30104 l 0.3189,-5.33333 H 568.66667 582 l -0.38232,12 c -0.98475,30.90921 -7.69632,68.91928 -12.11427,68.60765 -0.46021,-0.0325 -5.4789,-1.97931 -11.15265,-4.32633 z m 382.98257,-38.94799 v -7.33333 H 948.66667 956 v 7.33333 7.33334 h -7.33333 -7.33334 z m 159.99997,0 v -7.33333 h 7.3334 7.3333 v 7.33333 7.33334 h -7.3333 -7.3334 z m 389.3334,0 v -7.33333 h 7.3333 7.3333 v 7.33333 7.33334 H 1498 1490.6667 Z M 104.58263,307.86404 c -2.0584,-3.33057 2.85968,-50.52697 7.46339,-71.6225 0.85121,-3.90049 2.27817,-7.37212 3.17102,-7.71474 0.89285,-0.34262 6.38427,1.3766 12.20316,3.82049 12.3749,5.19735 11.96896,3.78069 8.11489,28.31938 -1.26695,8.06667 -2.8415,21.71062 -3.49898,30.31988 -0.65749,8.60927 -1.57,16.25927 -2.02779,17 -1.15002,1.86078 -24.2688,1.74937 -25.42569,-0.12251 z M 160,304.66668 v -4.66667 h 57.33333 57.33334 v 4.66667 4.66666 H 217.33333 160 Z m 253.84539,2.74455 c -0.40567,-1.05717 -0.52874,-3.00717 -0.27348,-4.33334 0.43759,-2.27345 3.64369,-2.4311 56.11276,-2.75918 l 55.64866,-0.34796 v 4.6813 4.68129 h -55.37518 c -46.99514,0 -55.4868,-0.29087 -56.11276,-1.92211 z m 141.71017,1.03322 c -0.48889,-0.48889 -0.88889,-3.98468 -0.88889,-7.76843 0,-10.56066 -2.61102,-34.59993 -5.28317,-48.64134 -1.32216,-6.9476 -2.16074,-13.2476 -1.86352,-14 0.29722,-0.7524 5.39492,-3.33495 11.32822,-5.73899 7.72477,-3.1299 11.26172,-3.97769 12.45683,-2.98584 4.08669,3.39165 13.20436,71.00334 10.51881,78.00178 -0.61574,1.60459 -3.31393,2.02171 -13.0776,2.02171 -6.76599,0 -12.7018,-0.4 -13.19068,-0.88889 z M 829.4831,297.89261 c -32.54108,-8.75139 -51.80343,-41.06694 -43.49421,-72.96821 7.29567,-28.00995 31.23188,-46.25773 60.67778,-46.25773 46.39647,0 75.96583,46.57489 55.70199,87.73658 -12.53476,25.46172 -44.28782,39.18026 -72.88556,31.48936 z m 30.94861,-25.04709 c 10.98935,-4.6053 19.34323,-16.85006 20.53232,-30.09542 2.29296,-25.54125 -20.3984,-45.08841 -44.28125,-38.14548 -14.21315,4.13188 -23.25379,15.83036 -24.38229,31.55037 -0.88738,12.3613 2.2409,21.18006 10.41162,29.35078 9.96118,9.96118 24.64572,12.8186 37.7196,7.33975 z m 904.90159,24.73544 c -20.5986,-5.38415 -36.1029,-20.43159 -42.0185,-40.7806 -1.6774,-5.77025 -2.1398,-11.2466 -1.7561,-20.79934 0.4713,-11.73493 0.9924,-13.92097 5.4845,-23.01013 18.2574,-36.94132 68.341,-46.0733 99.0015,-18.05138 12.5092,11.43274 19.2886,26.74488 19.2886,43.56582 0,41.74108 -38.2517,69.98793 -80,59.07563 z m 27.8375,-23.6562 c 25.7153,-7.63662 32.9251,-43.72642 12.4269,-62.20482 -14.2814,-12.87415 -38.6375,-10.6384 -49.6451,4.55712 -14.8245,20.46463 -6.6238,49.27343 16.2777,57.18277 8.7701,3.02888 12.0607,3.10194 20.9405,0.46493 z m -177.6646,-33.59142 c -12.9362,-32.08333 -23.5172,-58.80363 -23.5133,-59.37844 0,-0.57481 6.4571,-0.87481 14.3404,-0.66667 l 14.3334,0.37844 14.8641,39.75305 c 8.1753,21.86418 15.0753,39.96281 15.3334,40.21919 0.258,0.25637 7.1672,-17.6325 15.3538,-39.75305 l 14.8846,-40.21919 14.1154,-0.37844 c 7.7634,-0.20814 14.1153,-0.0262 14.1153,0.4043 0,0.43051 -10.567,27.15081 -23.4822,59.37844 l -23.4823,58.59571 h -11.6711 -11.671 z M 937.33333,238.49472 V 179.65611 L 967,180.34936 c 33.1165,0.77386 38.7647,1.87242 49.1911,9.56751 4.2422,3.13093 7.3901,7.01108 10,12.32621 3.3415,6.80498 3.8061,9.22959 3.7857,19.75693 -0.021,10.74896 -0.4314,12.74127 -3.9386,19.11029 -4.664,8.46975 -9.4916,12.80179 -19.3715,17.38299 -6.4154,2.97473 -9.54487,3.46811 -25.00003,3.94133 L 964,262.97555 v 17.1789 17.17889 h -13.33333 -13.33334 z m 52.61401,0.0461 c 11.25556,-2.8342 16.72026,-13.57539 12.29496,-24.16664 -3.00261,-7.18621 -8.30487,-9.36617 -24.57563,-10.10401 L 964,203.65046 v 18.17477 18.17478 h 10.07624 c 5.54193,0 12.68393,-0.65663 15.8711,-1.45916 z M 1056,238.66667 v -58.66666 h 44 44 v 12 12 h -31.3333 -31.3334 v 11.30628 11.30628 l 27.6667,0.36039 27.6667,0.36038 0.3852,11.66667 0.3853,11.66666 h -28.052 -28.0519 v 12 12 h 32 32 v 11.33334 11.33333 H 1100.6667 1056 Z m 117.6527,0.33334 0.3473,-58.33334 31.3333,0.0228 c 34.9764,0.0255 40.8058,0.91683 51.3465,7.85136 8.7649,5.76628 14.0617,15.23285 14.9894,26.78925 1.3212,16.45989 -4.5628,29.19132 -17.0903,36.97886 -3.6184,2.24931 -6.5789,4.30045 -6.5789,4.55809 0,0.25765 5.6049,8.71796 12.4552,18.8007 6.8504,10.08274 12.8858,19.08226 13.4121,19.99893 0.7416,1.29187 -2.4662,1.66666 -14.2649,1.66666 h -15.2215 L 1232,278.66667 1219.6191,260.00001 H 1209.8096 1200 v 18.66666 18.66667 h -13.3473 -13.3474 z m 61.3901,-3.48265 c 7.1378,-3.02108 9.6239,-6.86584 9.6239,-14.88325 0,-12.82015 -7.1668,-16.6341 -31.2571,-16.6341 H 1200 v 16.66666 16.66667 h 15.3762 c 9.9861,0 16.8801,-0.63658 19.6666,-1.81598 z M 1292,296.29887 c 0,-0.56896 10.971,-26.81896 24.38,-58.33333 l 24.38,-57.29887 h 12.5033 12.5034 l 24.4463,57.33334 c 13.4455,31.53333 24.448,57.80432 24.45,58.37998 0,0.57565 -6.1044,0.87565 -13.5697,0.66666 l -13.5734,-0.37997 -5.0004,-12 -5.0004,-12.00001 -24.5232,-0.36188 -24.5232,-0.36188 -5.0247,12.69521 -5.0246,12.69522 h -13.2117 c -7.2664,0 -13.2117,-0.46551 -13.2117,-1.03447 z m 69.0215,-64.6322 c -3.6412,-8.98333 -7.0562,-16.79895 -7.589,-17.36803 -0.7594,-0.81126 -7.2902,13.71321 -14.404,32.0347 -0.4937,1.27139 2.8227,1.66667 13.9831,1.66667 h 14.6302 z M 1452,251.33334 v -46 h -18 -18 v -12.66667 -12.66666 h 48.6667 48.6666 v 12.66666 12.66667 h -18 -18 v 46 46 H 1464.6667 1452 Z m 88,-12.66667 v -58.66666 h 13.3333 13.3334 v 58.66666 58.66667 H 1553.3333 1540 Z M 208,266.00001 v -24.66667 h 33.33333 33.33334 v 15.33333 15.33334 h -5.33334 c -5.18852,0 -5.33333,0.12452 -5.33333,4.58618 0,4.33713 0.27152,4.60865 5,5 4.56477,0.3778 5.03637,0.79102 5.41781,4.74715 l 0.41781,4.33334 H 241.41781 208 Z m 76,20 c 0,-4.44445 0.22222,-4.66667 4.66667,-4.66667 4.44444,0 4.66666,0.22222 4.66666,4.66667 0,4.44444 -0.22222,4.66667 -4.66666,4.66667 -4.44445,0 -4.66667,-0.22223 -4.66667,-4.66667 z m 110.91552,0.33333 c 0.36738,-3.8103 0.94085,-4.38376 4.75115,-4.75114 4.15633,-0.40075 4.33333,-0.22375 4.33333,4.33333 0,4.55708 -0.19406,4.75115 -4.75114,4.75115 -4.55709,0 -4.73408,-0.177 -4.33334,-4.33334 z m 18.92987,2.41122 c -1.65754,-4.31949 0.0871,-6.73711 5.1657,-7.15837 4.71584,-0.39117 4.98891,-0.66485 4.98891,-5 0,-4.46786 -0.13872,-4.58618 -5.377,-4.58618 h -5.377 l 0.377,-15 0.377,-15 31.66667,-0.35747 31.66666,-0.35746 v 24.6908 24.6908 h -31.37518 c -26.09402,0 -31.49933,-0.32354 -32.11276,-1.92212 z M 284,256.66667 v -15.33333 h 4.66667 4.66666 v 15.33333 15.33334 H 288.66667 284 Z m 18.66667,0 V 241.33334 H 344 385.33333 v 15.33333 15.33334 h -5.45002 c -6.72955,0 -21.04303,-7.64735 -28.0102,-14.96518 -6.16341,-6.47363 -9.60366,-6.45293 -15.83281,0.0953 -7.07931,7.4419 -20.98385,14.86991 -27.8351,14.86991 h -5.53853 z m 92,0 V 241.33334 H 399.33333 404 v 15.33333 15.33334 h -4.66667 -4.66666 z m -116,-29.321 v -4.679 h 67.41781 67.41781 l -0.41781,4.33334 -0.41781,4.33333 -67,0.34567 -67,0.34566 z M 130,220.82676 c -8.37691,-3.37785 -10.75917,-4.93797 -11.0976,-7.26771 -1.24638,-8.58027 26.64727,-74.23919 33.28035,-78.33866 0.80318,-0.49639 5.57892,3.23094 10.69558,8.3476 l 9.24445,9.24445 -8.72734,17.92712 c -4.80003,9.85991 -11.19939,25.42711 -14.2208,34.59378 -3.0214,9.16667 -6.17173,17.37045 -7.00072,18.23062 -1.14727,1.19044 -4.05481,0.5367 -12.17392,-2.7372 z m 414.32769,3.37577 c -0.80869,-0.4998 -3.37946,-6.89983 -5.71282,-14.22229 -5.15348,-16.17245 -8.811,-25.10289 -17.63466,-43.05797 l -6.75441,-13.7444 9.07253,-9.1426 c 5.1415,-5.18119 9.84093,-8.84773 10.84593,-8.46208 C 539.29317,137.54902 568,203.68 568,213.56556 c 0,1.50436 -1.86417,3.19252 -5,4.52792 -13.00171,5.53682 -17.31491,6.94797 -18.67231,6.10905 z M 333.67051,174.18066 c -2.75211,-2.4673 -8.54913,-6.21132 -12.88226,-8.32003 -4.33313,-2.10872 -10.73993,-6.40678 -14.23734,-9.55124 -12.64409,-11.36813 -23.40616,-33.85794 -24.90193,-52.03831 l -0.69074,-8.395588 -9.14578,0.901202 c -5.05818,0.49842 -9.13399,0.377265 -9.11938,-0.271077 0.0145,-0.644755 0.6248,-5.372281 1.35617,-10.505614 1.98859,-13.957481 6.14867,-25.075766 13.48866,-36.049953 16.31247,-24.389174 42.15642,-37.819713 69.79542,-36.271172 38.77627,2.172532 71.51079,34.851875 74.95846,74.832092 l 0.79143,9.177634 -8.69292,-0.930933 -8.69292,-0.930933 -0.9407,8.419962 c -0.51738,4.63099 -2.44347,12.91421 -4.2802,18.40717 -6.81993,20.39586 -18.93694,35.13704 -35.68651,43.41513 -5.45251,2.69477 -11.57308,6.63166 -13.60126,8.74863 -5.20125,5.42893 -10.98675,5.21856 -17.5182,-0.63697 z M 290.0201,83.422441 c 16.83261,-6.011117 33.03357,-20.380268 40.68983,-36.089106 4.03307,-8.27491 8.46159,-23.272927 7.23427,-24.500243 -1.38112,-1.381126 -15.43428,2.438832 -23.9847,6.519572 -10.61033,5.063843 -24.27028,17.51092 -30.5004,27.792257 -4.98058,8.219266 -10.12577,22.165528 -10.12577,27.446354 0,3.050546 0.37798,3.270238 4.33334,2.518648 2.38333,-0.452876 7.94238,-2.112244 12.35343,-3.687482 z M 412.64461,82.333336 C 410.21698,67.43112 398.99406,48.576306 386.41713,38.270459 378.67652,31.92761 362.30257,24.254461 354.12947,23.139841 l -6.53719,-0.891522 0.87927,5.875841 c 0.4836,3.231713 3.5566,11.335483 6.82888,18.008378 4.74456,9.675196 7.78525,13.861053 15.01269,20.666668 10.32092,9.718549 21.82629,16.332786 33.19898,19.085519 4.30168,1.04121 8.32397,1.943098 8.93843,2.004194 0.61446,0.0611 0.70179,-2.438916 0.19408,-5.555583 z M 168.55308,133.12374 C 163.84888,128.60654 160,124.04973 160,122.9975 c 0,-1.05224 4.3219,-7.70713 9.60422,-14.78866 15.93728,-21.365655 52.77843,-56.293093 57.47604,-54.490449 1.60585,0.616223 10.28497,20.169338 10.26385,23.123359 -0.006,0.829629 -2.26078,3.22099 -5.01078,5.314136 -14.33554,10.911413 -41.19353,40.269774 -49.12776,53.701354 -1.31878,2.23253 -3.23066,4.37873 -4.2486,4.76936 -1.08308,0.41561 -5.39871,-2.69664 -10.40389,-7.50286 z m 338.5982,7.17614 C 506.31782,139.76828 501.87224,134.23334 497.27221,128 485.36926,111.87075 473.43095,98.836707 460.52378,87.87869 454.04672,82.379758 449.33333,77.352741 449.33333,75.943631 c 0,-3.043197 6.49807,-18.613742 8.84192,-21.186828 1.49669,-1.643064 2.39202,-1.445748 6.40913,1.412467 19.09175,13.583981 43.62992,39.092514 58.02229,60.31678 l 4.39825,6.48605 -9.16913,9.14716 c -5.45916,5.44609 -9.78227,8.75609 -10.68451,8.18062 z M 789.33333,65.333335 V 6.6666669 h 13.91052 13.91052 l 14.88224,24.0000011 c 8.18524,13.2 15.34814,24 15.91756,24 0.56943,0 7.7406,-10.8 15.93594,-24 L 878.79073,6.6666669 h 13.93797 13.93797 V 65.333335 124 H 893.33333 880 l -0.019,-36.999997 -0.019,-37.000002 -16.05781,24.523157 c -8.83187,13.487736 -16.5016,23.987736 -17.04392,23.333334 -0.54232,-0.654402 -7.85774,-11.633685 -16.25648,-24.398405 L 815.33333,50.249504 814.97891,87.124754 814.62448,124 H 801.97891 789.33333 Z M 931.05257,123 c 0.2988,-0.55 11.56653,-26.949997 25.0394,-58.666665 L 980.58809,6.6666669 h 12.22997 c 8.53164,0 12.43604,0.5040004 12.91144,1.6666667 0.3748,0.9166667 11.3001,26.5666674 24.2784,57.0000014 12.9783,30.433335 23.9001,56.083335 24.2705,57.000005 0.5132,1.26982 -2.6359,1.66666 -13.2255,1.66666 h -13.8991 l -5.1307,-12.69527 -5.1307,-12.69528 -24.61486,0.361943 -24.6149,0.361943 -4.83132,12.330024 -4.83132,12.33003 -13.74536,0.003 C 936.6947,123.99851 930.75376,123.55 931.05257,123 Z m 75.02663,-50.666665 c -5.5151,-14.745306 -13.34884,-32.231237 -14.06439,-31.393741 -1.19861,1.402886 -13.34814,31.026054 -13.34814,32.545642 0,0.649788 6.36419,1.181433 14.14265,1.181433 12.91278,0 14.06678,-0.202912 13.26988,-2.333334 z m 72.5875,-7.17195 V 6.3227666 l 29.6666,0.69325 c 33.1166,0.7738664 38.7648,1.8724207 49.1911,9.5675144 4.2423,3.130928 7.3901,7.01108 10,12.326213 3.3415,6.804976 3.8061,9.229592 3.7858,19.756924 -0.021,10.748965 -0.4314,12.741269 -3.9386,19.110293 -4.6641,8.469747 -9.4917,12.801787 -19.3716,17.382995 -6.4154,2.974729 -9.5448,3.468102 -25,3.941323 l -17.6667,0.540935 V 106.82111 124 H 1092 1078.6667 Z m 52.614,0.04612 c 11.2556,-2.834191 16.7202,-13.575385 12.2949,-24.166633 -3.0026,-7.186208 -8.3048,-9.366177 -24.5756,-10.104011 l -13.6667,-0.619745 v 18.174775 18.174776 h 10.0763 c 5.5419,0 12.6839,-0.656623 15.8711,-1.459162 z M 1176.0367,123 c 0.02,-0.55 11.0251,-26.799997 24.4553,-58.333331 l 24.4185,-57.3333354 h 12.5103 12.5104 l 24.8988,58.3770684 24.8988,58.377068 -14.1134,-0.37707 -14.1134,-0.37706 -4.8369,-12 -4.837,-12.000004 -24.5807,-0.357224 -24.5807,-0.357225 -5.1621,12.690563 L 1202.3425,124 h -13.1713 c -7.2441,0 -13.1547,-0.45 -13.1345,-1 z m 69.1252,-64.666665 c -3.6821,-8.983334 -7.1331,-16.786598 -7.6689,-17.340588 -0.7542,-0.779851 -7.4417,14.116824 -14.6041,32.531256 -0.2445,0.628466 6.1733,1.142666 14.2616,1.142666 h 14.706 z"
       id="path1" />
  </g>
</svg>
