<?xml version="1.0" encoding="UTF-8" standalone="no"?>
<!-- Uploaded to: SVG Repo, www.svgrepo.com, Generator: SVG Repo Mixer Tools -->

<svg
   width="431.77054"
   height="95.211967"
   viewBox="0 0 12.953116 2.8563591"
   fill="none"
   version="1.1"
   id="svg1"
   xmlns:xlink="http://www.w3.org/1999/xlink"
   xmlns="http://www.w3.org/2000/svg"
   xmlns:svg="http://www.w3.org/2000/svg">
  <defs
     id="defs1">
    <linearGradient
       id="swatch1">
      <stop
         style="stop-color:#949494;stop-opacity:0;"
         offset="0"
         id="stop1" />
    </linearGradient>
    <linearGradient
       xlink:href="#swatch1"
       id="linearGradient1"
       x1="2.7044163"
       y1="11.064366"
       x2="20.706741"
       y2="11.064366"
       gradientUnits="userSpaceOnUse"
       gradientTransform="matrix(0.14280494,0,0,0.14280494,5.5617434,4.8062665)" />
  </defs>
  <g
     id="g1"
     transform="translate(-5.9479547,-4.9580405)">
    <path
       d="m 7.0903932,5.4997009 c -0.06615,-0.026769 -0.1384478,-0.041528 -0.2142065,-0.041528 -0.315476,0 -0.5712201,0.255744 -0.5712201,0.5712197 0,0.3154707 0.2557441,0.5712221 0.5712201,0.5712221 0.1706093,0 0.3237533,-0.074801 0.4284148,-0.1933895 M 7.7617906,5.0602075 c -0.01291,0.01843 -0.01291,0.044444 -0.01291,0.096495 v 0.085156 c -0.012744,0.00432 -0.025163,0.0096 -0.037229,0.015431 l -0.060226,-0.06021 c -0.036784,-0.036789 -0.055177,-0.055183 -0.077358,-0.059095 -0.00816,-0.00144 -0.016592,-0.00144 -0.024788,0 -0.022181,0.00396 -0.040574,0.022306 -0.077368,0.059095 -0.036784,0.036789 -0.055176,0.055183 -0.059093,0.077369 -0.00148,0.00816 -0.00148,0.016595 0,0.024814 0.00394,0.022174 0.022308,0.040568 0.059093,0.077357 l 0.060207,0.06021 c -0.00581,0.012035 -0.010947,0.02449 -0.01544,0.037257 h -0.085141 c -0.052038,0 -0.078035,0 -0.096487,0.012911 -0.00679,0.00468 -0.012744,0.010681 -0.017536,0.01753 -0.01291,0.01843 -0.01291,0.044444 -0.01291,0.096495 0,0.052039 0,0.078041 0.01291,0.096483 0.00482,0.00697 0.010713,0.012743 0.017536,0.01753 0.018431,0.012899 0.044451,0.012899 0.096487,0.012899 h 0.085141 c 0.00454,0.012743 0.00964,0.025162 0.01544,0.037245 l -0.060207,0.06021 c -0.036803,0.036776 -0.055196,0.055183 -0.059103,0.077357 -0.00148,0.00816 -0.00148,0.016594 0,0.024814 0.00394,0.022186 0.022307,0.040556 0.059103,0.077357 0.036784,0.036776 0.055178,0.055183 0.077359,0.059106 0.00816,0.00144 0.016593,0.00144 0.024788,0 0.022181,-0.00396 0.040572,-0.022306 0.077357,-0.059106 l 0.060226,-0.06021 c 0.012078,0.00588 0.024504,0.010918 0.037248,0.015454 v 0.085156 c 0,0.052027 0,0.078041 0.01291,0.096483 0.00482,0.00696 0.010713,0.012743 0.017536,0.017531 0.018452,0.012922 0.044451,0.012922 0.096498,0.012922 0.052038,0 0.078037,0 0.096498,-0.012922 0.00679,-0.00468 0.012744,-0.01067 0.017536,-0.017531 0.012912,-0.01843 0.012912,-0.044456 0.012912,-0.096483 v -0.085157 c 0.012744,-0.00432 0.025172,-0.0096 0.037257,-0.015454 l 0.060206,0.06021 c 0.036803,0.036776 0.055196,0.055183 0.077359,0.059106 0.00827,0.00144 0.016592,0.00144 0.024808,0 0.022161,-0.00396 0.040572,-0.022306 0.077358,-0.059106 0.036785,-0.036776 0.055197,-0.055183 0.059093,-0.077357 0.00148,-0.00816 0.00148,-0.016594 0,-0.024814 -0.00394,-0.022186 -0.022308,-0.040568 -0.059093,-0.077357 l -0.060226,-0.060234 c 0.00581,-0.012023 0.010947,-0.02449 0.01544,-0.037244 h 0.085143 c 0.052038,0 0.078036,0 0.096498,-0.012911 0.00679,-0.0048 0.012744,-0.010681 0.017536,-0.01753 0.01291,-0.01843 0.01291,-0.044444 0.01291,-0.096495 0,-0.052027 0,-0.078053 -0.01291,-0.096483 -0.00482,-0.00697 -0.010713,-0.012743 -0.017536,-0.01753 -0.018451,-0.012911 -0.044459,-0.012911 -0.096498,-0.012911 h -0.085144 c -0.00454,-0.012743 -0.00964,-0.025162 -0.01544,-0.037245 l 0.060205,-0.06021 c 0.036803,-0.036789 0.055196,-0.055183 0.059093,-0.077357 0.00148,-0.00816 0.00148,-0.016594 0,-0.024814 -0.00394,-0.022174 -0.022308,-0.040568 -0.059093,-0.077357 -0.036783,-0.036789 -0.055196,-0.055183 -0.077358,-0.059106 -0.00816,-0.00144 -0.016592,-0.00144 -0.024808,0 -0.022162,0.00396 -0.040553,0.022306 -0.077358,0.059106 l -0.060207,0.060221 c -0.012066,-0.00588 -0.024492,-0.010918 -0.037236,-0.01543 v -0.085156 c 0,-0.052027 0,-0.078041 -0.01291,-0.096495 -0.00482,-0.00696 -0.010714,-0.012731 -0.017536,-0.017542 -0.018452,-0.012899 -0.04445,-0.012899 -0.096497,-0.012899 -0.052038,0 -0.078036,0 -0.096498,0.012899 -0.00679,0.0048 -0.012744,0.010681 -0.017536,0.017542 z m 0.2568353,0.5407736 c 0,0.078869 -0.063936,0.1428034 -0.1428041,0.1428034 -0.078872,0 -0.1428043,-0.063918 -0.1428043,-0.1428034 0,-0.078869 0.063936,-0.1428045 0.1428043,-0.1428045 0.078872,0 0.1428041,0.063918 0.1428041,0.1428045 z M 6.4931336,6.886225 h 0.7661121 c 0.068905,0 0.1033494,0 0.1341662,0.00647 0.1066616,0.022786 0.1988984,0.102818 0.2505646,0.2174771 0.014939,0.033105 0.025833,0.072473 0.047628,0.1512015 0.026177,0.094586 0.039273,0.1418758 0.041046,0.1800204 0.00619,0.1345792 -0.066492,0.2560919 -0.1744784,0.2915078 -0.030605,0.00997 -0.072005,0.00997 -0.1548002,0.00997 H 6.3490213 c -0.082799,0 -0.1241974,0 -0.1548049,-0.00997 C 6.0862232,7.6974856 6.013492,7.575983 6.0197368,7.4413988 c 0.00177,-0.038144 0.014859,-0.085432 0.041046,-0.1800203 0.021797,-0.078725 0.032681,-0.118081 0.04762,-0.1512014 0.051673,-0.1146493 0.1439054,-0.194701 0.2505658,-0.2174773 0.03082,-0.00647 0.065274,-0.00647 0.1341769,-0.00647 z"
       stroke="#464455"
       stroke-linecap="round"
       stroke-linejoin="round"
       id="path1"
       style="fill:url(#linearGradient1);stroke:#ffffff;stroke-width:0.142805;stroke-opacity:1" />
    <text
       xml:space="preserve"
       style="font-weight:bold;font-size:3.4px;font-family:'Myriad Pro';-inkscape-font-specification:'Myriad Pro Bold';text-align:start;writing-mode:lr-tb;direction:rtl;text-anchor:start;fill:#ffffff;fill-opacity:1;stroke:#ffffff;stroke-width:0.0357424;stroke-opacity:1"
       x="19.008368"
       y="7.7492838"
       id="text1"
       transform="scale(1.0061933,0.99384483)"><tspan
         id="tspan1"
         style="font-style:normal;font-variant:normal;font-weight:600;font-stretch:normal;font-size:3.4px;font-family:'Myriad Pro';-inkscape-font-specification:'Myriad Pro Semi-Bold';fill:#ffffff;fill-opacity:1;stroke:#ffffff;stroke-width:0.0357425;stroke-opacity:1"
         x="19.008368"
         y="7.7492838">ADMIN</tspan></text>
  </g>
</svg>
