<?xml version="1.0" encoding="UTF-8"?>
<svg version="1.1" xmlns="http://www.w3.org/2000/svg" width="2480" height="3507">
<path d="M0 0 C3.8832358 0.58333696 7.63862537 0.68775007 11.55883789 0.77441406 C35.79711855 1.36544749 35.79711855 1.36544749 43.5625 8.16015625 C47.06936125 10.9364214 48.80571821 11.00011115 53.1875 11.47265625 C63.6231952 12.66153292 73.73751623 17.30210544 80.5625 25.53515625 C81.77248434 27.89768896 82.74166544 30.19692976 83.578125 32.71484375 C84.39660919 34.67065542 84.39660919 34.67065542 86.28125 35.30078125 C89.15205667 35.59572714 91.92845129 35.51266983 94.8125 35.41015625 C101.88478086 35.36258485 106.37167487 36.47884672 112.375 40.34765625 C117.00793488 44.98059113 117.98764562 50.02811808 118.5 56.34765625 C119.16317449 62.7978699 120.65499542 67.78289898 123.5625 73.53515625 C129.19947496 85.30761416 128.97856856 99.84881027 127.00390625 112.6015625 C126.50575333 115.91229561 126.61025536 116.87300447 128.5625 119.53515625 C129.366875 120.25703125 130.17125 120.97890625 131 121.72265625 C135.08594047 126.20722506 136.28244756 131.21472171 137 137.16015625 C137.56973619 140.57857337 138.70435131 142.79220746 140.51953125 145.71484375 C141.96613899 148.23963478 142.87136758 150.88111001 143.83984375 153.6171875 C144.62325839 155.79633066 144.62325839 155.79633066 146.1875 158.78515625 C148.50399052 163.4181373 148.79046895 167.62382 149.125 172.78515625 C149.20878906 174.0484375 149.29257813 175.31171875 149.37890625 176.61328125 C149.43949219 177.5775 149.50007813 178.54171875 149.5625 179.53515625 C150.30298584 179.70120361 151.04347168 179.86725098 151.80639648 180.03833008 C155.20535361 180.80335415 158.60266721 181.57545218 162 182.34765625 C163.16466797 182.60869141 164.32933594 182.86972656 165.52929688 183.13867188 C175.31596921 185.37168725 175.31596921 185.37168725 179.98828125 187.0234375 C183.81030302 188.3660012 187.65752686 189.29350047 191.609375 190.18359375 C192.86621094 190.4671875 194.12304688 190.75078125 195.41796875 191.04296875 C197.37387373 191.47848621 199.32986363 191.91386141 201.28955078 192.33203125 C203.21233073 192.74497728 205.12972007 193.18277409 207.046875 193.62109375 C208.17834961 193.86907715 209.30982422 194.11706055 210.47558594 194.37255859 C214.8472529 196.01902158 217.44058456 198.71872173 219.875 202.66015625 C220.5625 204.53515625 220.5625 204.53515625 220.5625 207.53515625 C227.20122373 208.60024744 233.73841482 209.59797269 240.47265625 209.57421875 C255.56783107 209.58132771 268.16463202 213.50654634 282.34375 218.453125 C286.76433727 219.93917193 291.2279856 221.15216907 295.75 222.28515625 C302.35346431 223.9524832 308.88692017 225.7699308 315.41040039 227.72705078 C321.30180798 229.48549289 327.23336439 231.04252301 333.1953125 232.54296875 C336.13450203 233.40904084 338.78716553 234.5171949 341.57958984 235.75878906 C345.69445317 237.36987813 350.02907396 238.29166031 354.3125 239.34765625 C365.58462408 242.20404318 376.67593627 245.49676948 387.67895508 249.25878906 C393.89125632 251.37438599 400.17537026 253.16254196 406.5 254.91015625 C408.14174194 255.36696777 408.14174194 255.36696777 409.81665039 255.83300781 C413.06457937 256.73622602 416.31334858 257.63634651 419.5625 258.53515625 C420.47 258.78620117 421.3775 259.03724609 422.3125 259.29589844 C423.1478125 259.52696289 423.983125 259.75802734 424.84375 259.99609375 C425.63128662 260.21450928 426.41882324 260.4329248 427.23022461 260.65795898 C428.73008143 261.07240797 430.23088637 261.48344265 431.73266602 261.89086914 C435.37813669 262.88692467 438.89916736 264.02921341 442.4375 265.34765625 C448.19370032 267.16911125 454.29092268 266.68068697 460.25732422 266.42504883 C467.27871654 266.20772981 472.37080072 267.47828338 478.375 271.34765625 C483.16967282 276.14232907 484.68667308 281.88121388 484.875 288.47265625 C484.8010309 296.41905063 482.02931261 303.45212704 479.37109375 310.8515625 C479.00113281 311.90214844 478.63117188 312.95273437 478.25 314.03515625 C477.90324219 314.97359375 477.55648438 315.91203125 477.19921875 316.87890625 C476.47066987 319.91825129 476.55669072 321.58542711 477.5625 324.53515625 C479.03254999 326.44123477 479.03254999 326.44123477 480.875 328.16015625 C486.32301112 334.0668295 488.70548893 341.60780384 489.5625 349.53515625 C490.2225 348.77203125 490.8825 348.00890625 491.5625 347.22265625 C494.77069071 344.06853617 498.10700486 342.2817098 502.5625 341.53515625 C507.19770561 341.91078069 510.69016463 342.95359934 514.5625 345.53515625 C516.63160593 345.56265103 516.63160593 345.56265103 518.75 345.16015625 C520.6371875 344.85078125 520.6371875 344.85078125 522.5625 344.53515625 C522.624375 343.97828125 522.68625 343.42140625 522.75 342.84765625 C523.95034365 339.43129354 525.78599578 337.82879017 528.5625 335.53515625 C534.89517122 332.90650027 540.12992898 333.39096591 546.5625 335.53515625 C549.8415887 335.8999007 553.11825835 336.24850746 556.40625 336.52148438 C561.52183059 337.06477442 565.26542596 338.69103649 569.5625 341.53515625 C570.14902344 341.89875244 570.73554687 342.26234863 571.33984375 342.63696289 C580.65804815 348.48241056 586.67320976 353.49801346 589.28515625 364.609375 C589.79528577 367.24785945 590.22302445 369.87001986 590.5625 372.53515625 C593.5325 371.87515625 596.5025 371.21515625 599.5625 370.53515625 C599.8925 369.21515625 600.2225 367.89515625 600.5625 366.53515625 C604.17578904 362.04591835 608.05182439 359.8826972 613.5625 358.53515625 C614.8825 358.53515625 616.2025 358.53515625 617.5625 358.53515625 C618.305 357.77203125 619.0475 357.00890625 619.8125 356.22265625 C623.55170326 352.56843488 627.59050268 351.14168632 632.66796875 350.10546875 C634.85783144 349.61736725 634.85783144 349.61736725 636.8125 347.16015625 C641.06921536 343.09692795 645.26920296 341.61562281 651.125 341.41015625 C652.259375 341.45140625 653.39375 341.49265625 654.5625 341.53515625 C656.90074592 341.23823613 659.23627689 340.91494778 661.5625 340.53515625 C661.8925 339.54515625 662.2225 338.55515625 662.5625 337.53515625 C663.366875 337.24640625 664.17125 336.95765625 665 336.66015625 C667.7747589 335.79238334 667.7747589 335.79238334 668.5625 333.16015625 C668.8925 332.29390625 669.2225 331.42765625 669.5625 330.53515625 C673.88682432 326.53515625 673.88682432 326.53515625 676.5625 326.53515625 C676.748125 325.83390625 676.93375 325.13265625 677.125 324.41015625 C678.82853201 321.00309223 680.82555214 319.37951451 683.75390625 317.0234375 C685.79581169 315.39770277 685.79581169 315.39770277 688.3125 312.72265625 C690.5625 310.53515625 690.5625 310.53515625 693.5625 309.53515625 C693.81 308.81328125 694.0575 308.09140625 694.3125 307.34765625 C696.11178637 303.29926192 699.17987143 301.28490593 702.5625 298.53515625 C705.87651439 295.50931702 707.64361082 293.86360791 708.5625 289.53515625 C710.38447011 283.34292001 712.5355697 279.02623407 718.2421875 275.49609375 C723.66016673 272.91075096 728.10246831 273.799346 733.828125 275.08984375 C736.62986987 275.54612792 737.89508183 275.29873015 740.5625 274.53515625 C743.86458694 274.38506139 747.16412411 274.28282542 750.46875 274.20703125 C754.43667163 273.3453109 755.30804935 271.80710233 757.5625 268.53515625 C760.96590891 266.36935058 763.66669373 265.44342487 767.625 265.16015625 C772.39154214 264.40356226 773.31301385 262.94711671 776.5625 259.53515625 C780.90006793 256.91534199 784.41404758 256.21229987 789.375 257.28515625 C791.80456619 257.95597453 794.17037024 258.73777966 796.5625 259.53515625 C802.23511662 258.39364408 805.11945362 256.12588476 808.5625 251.53515625 C812.47441319 249.1539917 815.97065928 247.71882988 820.5625 247.53515625 C822.36305972 248.2825584 824.16317928 249.03104044 825.9609375 249.78515625 C829.30228371 250.74842723 832.55001549 250.81195627 836 250.91015625 C843.64117679 251.18956335 850.99779284 252.32825565 858.5 253.78515625 C859.54148193 253.97770996 860.58296387 254.17026367 861.65600586 254.36865234 C873.89462287 256.84782945 881.6566105 261.176322 888.5625 271.53515625 C890.59545879 271.97617396 890.59545879 271.97617396 892.97021484 271.88818359 C893.88652679 271.89183929 894.80283875 271.895495 895.74691772 271.89926147 C897.24504501 271.88531845 897.24504501 271.88531845 898.7734375 271.87109375 C900.90885703 271.88363614 903.04427369 271.89667447 905.1796875 271.91015625 C908.5294063 271.91403886 911.87882693 271.91041741 915.22851562 271.89550781 C929.37556399 271.85731842 941.97167517 272.93607131 955.55413818 276.98008728 C959.33376111 278.02469557 963.19081631 278.55535968 967.0625 279.1328125 C970.63204854 279.70728672 974.07303704 280.59568545 977.5625 281.53515625 C977.76875 280.93703125 977.975 280.33890625 978.1875 279.72265625 C980.5800742 275.91628821 984.27919169 274.92572834 988.4375 273.66015625 C992.0530929 273.51553253 994.35036672 274.33556484 997.6328125 275.74609375 C1002.00841796 277.53530894 1004.90046094 277.48875515 1009.5625 276.53515625 C1009.624375 275.97828125 1009.68625 275.42140625 1009.75 274.84765625 C1011.13399954 270.90858063 1013.79039729 268.57756961 1017.35546875 266.48046875 C1022.73405668 264.05419954 1027.08907122 264.49476564 1032.5625 266.53515625 C1033.5525 267.19515625 1034.5425 267.85515625 1035.5625 268.53515625 C1035.624375 267.97828125 1035.68625 267.42140625 1035.75 266.84765625 C1037.13552789 262.90423073 1039.77332794 260.39779278 1043.53125 258.5859375 C1046.21901377 257.55796815 1048.84607247 256.68136595 1051.66796875 256.10546875 C1053.85783144 255.61736725 1053.85783144 255.61736725 1055.8125 253.16015625 C1059.12588237 249.99738217 1062.10018938 248.49830844 1066.5625 247.53515625 C1069.5625 247.84765625 1069.5625 247.84765625 1072.5625 248.53515625 C1078.01845374 248.79496357 1082.40309215 248.57944993 1087.5625 246.53515625 C1088.366875 245.73078125 1089.17125 244.92640625 1090 244.09765625 C1093.22246561 240.87519064 1096.06464111 239.30759713 1100.5625 238.53515625 C1105.03132699 238.77389158 1108.4296032 239.47061953 1111.73925781 242.58056641 C1115.39713766 245.11299343 1117.49981806 244.93542752 1121.91015625 244.7421875 C1122.60386826 244.71670334 1123.29758026 244.69121918 1124.01231384 244.66496277 C1126.21785974 244.57866089 1128.42080754 244.46308297 1130.625 244.34765625 C1132.10995398 244.28789531 1133.59498156 244.22993432 1135.08007812 244.17382812 C1141.8688902 244.06914072 1141.8688902 244.06914072 1148.53282166 243.02644348 C1151.93906619 242.20195597 1155.42026237 242.39325199 1158.90625 242.40234375 C1159.71235718 242.40138702 1160.51846436 242.4004303 1161.34899902 242.39944458 C1163.05021238 242.39876528 1164.75142836 242.40060212 1166.45263672 242.40478516 C1169.05311925 242.41013694 1171.65342907 242.40483171 1174.25390625 242.3984375 C1175.90885455 242.39909833 1177.56380274 242.40037958 1179.21875 242.40234375 C1179.99488647 242.40031952 1180.77102295 242.39829529 1181.57067871 242.39620972 C1185.08343565 242.41142888 1188.17881288 242.64391759 1191.5625 243.53515625 C1193.09301474 243.63351142 1194.626639 243.6891666 1196.16015625 243.7109375 C1206.06488686 243.94711046 1214.44619728 244.35336601 1223.5625 248.53515625 C1225.85198754 249.37445795 1228.14375235 250.20756801 1230.4375 251.03515625 C1236.06777973 253.0825307 1240.23028723 255.25136293 1243.3125 260.53515625 C1244.94320085 264.44883829 1245.67603151 267.7631395 1245.80859375 271.9921875 C1245.83985352 272.84965576 1245.87111328 273.70712402 1245.90332031 274.59057617 C1245.95117676 275.95533081 1245.95117676 275.95533081 1246 277.34765625 C1246.71754314 293.87516079 1248.96476562 309.73555067 1255.00390625 325.234375 C1257.20624599 330.97344232 1258.56765743 336.95689675 1260.0625 342.91015625 C1261.88292894 350.11237729 1263.7117269 357.28579248 1265.93774414 364.375 C1266.82420276 367.44001987 1267.38717074 370.53911317 1267.95703125 373.67578125 C1268.54933293 376.47297371 1269.33030434 379.1815049 1270.12890625 381.92529297 C1272.11867066 388.99556598 1272.96048734 395.68443812 1273 403.03515625 C1273.01474365 404.27144775 1273.01474365 404.27144775 1273.02978516 405.53271484 C1272.90400427 414.52513642 1269.71607 420.85820009 1264.625 428.09765625 C1261.82512642 432.14005244 1259.20354576 436.16008182 1256.80200195 440.45678711 C1254.1604587 444.88606773 1251.18509258 449.10627856 1248.2722168 453.35986328 C1247.12868525 455.02977464 1245.98881569 456.70213577 1244.84960938 458.375 C1238.83227063 467.19196248 1238.83227063 467.19196248 1235.77734375 471.37890625 C1234.21050307 473.61172331 1232.86403601 475.71031918 1231.5546875 478.078125 C1229.86835624 481.00440572 1228.04781285 483.56870479 1225.9597168 486.21337891 C1219.85037698 494.06137751 1217.01267726 502.00145794 1214.21386719 511.45214844 C1212.44200141 517.11839988 1210.20767592 522.95449828 1207.00952148 527.97119141 C1204.94680156 533.05160062 1205.17182507 537.70564025 1205.234375 543.13671875 C1205.23624817 544.25074066 1205.23812134 545.36476257 1205.24005127 546.51254272 C1205.24675807 548.86093146 1205.26064516 551.20930927 1205.28125 553.55761719 C1205.31245009 557.15440238 1205.32222843 560.75074902 1205.328125 564.34765625 C1205.33729383 566.63151577 1205.34766922 568.91537083 1205.359375 571.19921875 C1205.36362488 572.27531403 1205.36787476 573.3514093 1205.37225342 574.46011353 C1205.38186096 575.4615036 1205.39146851 576.46289368 1205.40136719 577.49462891 C1205.40819519 578.37365875 1205.41502319 579.2526886 1205.42205811 580.15835571 C1205.55577177 582.42128958 1205.97057897 584.35542451 1206.5625 586.53515625 C1206.68493452 588.33103479 1206.76278584 590.13022325 1206.80859375 591.9296875 C1206.84146484 592.96802734 1206.87433594 594.00636719 1206.90820312 595.07617188 C1206.96906949 597.24534535 1207.02640046 599.41462111 1207.08007812 601.58398438 C1207.22288674 605.94099445 1207.36060891 609.82853743 1208.5625 614.03515625 C1210.04305011 619.21708164 1209.99225312 624.35773957 1210.125 629.72265625 C1210.18503182 631.86208828 1210.24868476 634.00142257 1210.31640625 636.140625 C1210.35229858 637.55057739 1210.35229858 637.55057739 1210.38891602 638.98901367 C1210.54793084 641.32145473 1210.99461921 643.27946063 1211.5625 645.53515625 C1211.71403378 647.42775002 1211.83548622 649.32284208 1211.9375 651.21875 C1212.52818911 659.46878475 1214.02962819 667.4826113 1215.5625 675.59765625 C1215.83913168 677.09429211 1216.11517644 678.59103657 1216.390625 680.08789062 C1217.55775369 686.82838613 1217.55775369 686.82838613 1219.09494019 693.48606873 C1219.57589709 695.5938692 1219.68940377 697.43857445 1219.69189453 699.59765625 C1219.69504669 700.38527344 1219.69819885 701.17289063 1219.70144653 701.984375 C1219.6994223 702.82613281 1219.69739807 703.66789063 1219.6953125 704.53515625 C1219.69626923 705.40785156 1219.69722595 706.28054688 1219.69821167 707.1796875 C1219.69889122 709.02213615 1219.69705262 710.86458722 1219.69287109 712.70703125 C1219.68751968 715.52479436 1219.6928237 718.34239808 1219.69921875 721.16015625 C1219.69855793 722.95182327 1219.69727668 724.74349019 1219.6953125 726.53515625 C1219.69834885 727.79779297 1219.69834885 727.79779297 1219.70144653 729.0859375 C1219.69829437 729.87355469 1219.69514221 730.66117188 1219.69189453 731.47265625 C1219.69109894 732.16230469 1219.69030334 732.85195313 1219.68948364 733.5625 C1219.55461221 735.65769094 1219.10526994 737.51113766 1218.5625 739.53515625 C1218.43247436 740.98939917 1218.34071029 742.44741704 1218.28125 743.90625 C1218.24386719 744.72802734 1218.20648437 745.54980469 1218.16796875 746.39648438 C1218.13316406 747.24662109 1218.09835938 748.09675781 1218.0625 748.97265625 C1217.6441154 759.14560044 1217.6441154 759.14560044 1216.5625 763.53515625 C1217.243125 763.78265625 1217.92375 764.03015625 1218.625 764.28515625 C1220.85645546 765.23471177 1223.02924469 766.18540832 1225.1875 767.28515625 C1226.04214844 767.71054688 1226.04214844 767.71054688 1226.9140625 768.14453125 C1232.89876293 773.19323587 1233.69848238 783.22019626 1234.5625 790.53515625 C1235.06699531 797.41591176 1235.26180281 804.31116105 1235.40478516 811.20776367 C1235.48853191 813.49064607 1235.48853191 813.49064607 1236.05810547 815.4699707 C1236.7141151 818.15592687 1236.76348938 820.70964174 1236.84375 823.47265625 C1236.88113281 824.61476563 1236.91851563 825.756875 1236.95703125 826.93359375 C1237.02734375 829.33463542 1237.09765625 831.73567708 1237.16796875 834.13671875 C1237.20535156 835.27882813 1237.24273438 836.4209375 1237.28125 837.59765625 C1237.31154297 838.64050781 1237.34183594 839.68335938 1237.37304688 840.7578125 C1237.47065872 843.42296569 1237.47065872 843.42296569 1238.06469727 845.50073242 C1238.76175938 848.34949093 1238.74760087 851.09352011 1238.80859375 854.0234375 C1238.84146484 855.28736328 1238.87433594 856.55128906 1238.90820312 857.85351562 C1238.96912985 860.50447624 1239.02645412 863.15552223 1239.08007812 865.80664062 C1239.13131836 867.70833008 1239.13131836 867.70833008 1239.18359375 869.6484375 C1239.2086499 870.80126221 1239.23370605 871.95408691 1239.25952148 873.1418457 C1239.58712943 876.81100191 1240.53008461 880.00639272 1241.5625 883.53515625 C1241.86547852 886.37768555 1241.86547852 886.37768555 1241.94140625 889.109375 C1241.99264648 890.60500977 1241.99264648 890.60500977 1242.04492188 892.13085938 C1242.07134766 893.15115234 1242.09777344 894.17144531 1242.125 895.22265625 C1242.1850545 897.26834262 1242.24871135 899.31392721 1242.31640625 901.359375 C1242.35229858 902.7064856 1242.35229858 902.7064856 1242.38891602 904.08081055 C1242.48569201 906.47479724 1242.48569201 906.47479724 1243.06030273 908.5012207 C1243.703447 911.10600187 1243.76260857 913.57278616 1243.84375 916.25390625 C1243.88113281 917.35089844 1243.91851563 918.44789063 1243.95703125 919.578125 C1244.02734375 921.8828125 1244.09765625 924.1875 1244.16796875 926.4921875 C1244.20535156 927.58917969 1244.24273438 928.68617188 1244.28125 929.81640625 C1244.31154297 930.81736328 1244.34183594 931.81832031 1244.37304688 932.84960938 C1244.47255598 935.43049036 1244.47255598 935.43049036 1245.0625 937.453125 C1245.79136493 940.48816412 1245.7683457 943.44916044 1245.84375 946.56640625 C1245.86215942 947.23933716 1245.88056885 947.91226807 1245.89953613 948.60559082 C1245.97784445 951.47307189 1246.04580744 954.34077696 1246.11474609 957.20849609 C1246.16667464 959.3070763 1246.22384291 961.40546992 1246.28125 963.50390625 C1246.31154297 964.75623047 1246.34183594 966.00855469 1246.37304688 967.29882812 C1246.52663673 969.92252294 1246.86327836 972.03202552 1247.5625 974.53515625 C1248.13924885 984.16242548 1248.5045695 992.49806744 1242.3125 1000.41015625 C1234.31505939 1006.58999672 1222.13750886 1005.38083102 1212.5625 1004.53515625 C1205.754985 1003.49064172 1199.08395204 1001.81411636 1192.39550781 1000.19335938 C1187.95668186 999.16207062 1183.48277788 998.34955498 1179 997.53515625 C1171.76304196 996.2010447 1164.60129074 994.65445901 1157.4375 992.97265625 C1148.89568231 990.9734431 1140.35906874 989.44409281 1131.68359375 988.16015625 C1126.93765425 987.45753601 1122.25456088 986.53510365 1117.5625 985.53515625 C1117.38460937 987.22898437 1117.38460937 987.22898437 1117.203125 988.95703125 C1116.61192472 993.67423069 1115.48541578 998.18444116 1114.3125 1002.78515625 C1112.27512944 1011.05044846 1110.63306709 1019.33467278 1109.1875 1027.72265625 C1107.29459575 1038.68298499 1105.18948079 1049.58121211 1102.9375 1060.47265625 C1102.79129211 1061.18263763 1102.64508423 1061.89261902 1102.4944458 1062.62411499 C1100.83647801 1070.66214179 1099.10241539 1078.67533728 1097.19165039 1086.65795898 C1096.53777689 1089.64821865 1096.05790455 1092.63058926 1095.625 1095.66015625 C1094.87651361 1100.79611162 1093.90763062 1105.84026869 1092.8125 1110.91015625 C1090.96580754 1119.47145081 1089.27691409 1128.05932445 1087.625 1136.66015625 C1085.57017408 1147.35146501 1083.48655139 1158.03593804 1081.31884766 1168.70507812 C1080.32288652 1173.62932897 1079.36964685 1178.55495907 1078.50390625 1183.50390625 C1078.33391113 1184.45765137 1078.16391602 1185.41139648 1077.98876953 1186.39404297 C1077.67500504 1188.16974311 1077.37167333 1189.94733633 1077.08154297 1191.72705078 C1075.93200366 1198.18094894 1073.98732533 1203.11033092 1069.25 1207.84765625 C1057.92894463 1214.9562259 1042.14403643 1211.99708682 1029.875 1209.22265625 C1026.98189309 1208.54717629 1024.09251911 1207.85846613 1021.20507812 1207.15917969 C1016.4367484 1206.03317721 1011.62710345 1205.13672693 1006.81640625 1204.2109375 C1003.03286782 1203.42516061 999.30618601 1202.49246442 995.5625 1201.53515625 C995.58606567 1202.42654297 995.58606567 1202.42654297 995.61010742 1203.3359375 C995.67306569 1206.06891079 995.71168095 1208.8017308 995.75 1211.53515625 C995.77513672 1212.46972656 995.80027344 1213.40429688 995.82617188 1214.3671875 C995.90383487 1221.77105975 995.00487207 1227.41434749 990.3125 1233.41015625 C984.57432243 1237.84420255 978.34242933 1237.83179158 971.375 1237.72265625 C970.58158203 1237.72201172 969.78816406 1237.72136719 968.97070312 1237.72070312 C965.29521843 1237.69292868 962.12552741 1237.46712806 958.5625 1236.53515625 C956.31542759 1236.31533395 954.06478762 1236.13031638 951.8125 1235.97265625 C950.05679688 1235.84697266 950.05679688 1235.84697266 948.265625 1235.71875 C946.92757812 1235.62787109 946.92757812 1235.62787109 945.5625 1235.53515625 C945.45292969 1236.25316406 945.34335938 1236.97117187 945.23046875 1237.7109375 C944.37181201 1243.31663965 943.50149662 1248.91961916 942.6027832 1254.51904297 C941.47076734 1261.59002927 940.39053397 1268.66688813 939.36328125 1275.75390625 C939.2034803 1276.85343376 939.2034803 1276.85343376 939.04045105 1277.97517395 C938.50662417 1281.65040993 937.97634515 1285.32609862 937.4519043 1289.00268555 C936.25110858 1297.33759564 934.85343305 1305.6050265 933.23461914 1313.86938477 C932.3125046 1318.89864372 931.67135756 1323.94379173 931.0234375 1329.015625 C930.06201808 1336.35663261 928.79533842 1343.57312214 927.125 1350.78515625 C925.46941296 1358.29769442 924.59313182 1365.86232213 923.68994141 1373.49682617 C922.87841544 1380.26749871 921.8627617 1386.95480979 920.6171875 1393.65771484 C919.79995664 1398.08474041 919.13363364 1402.50742959 918.5625 1406.97265625 C917.83011134 1412.67918459 916.99175414 1418.35799421 916.0625 1424.03515625 C915.88460937 1425.1478186 915.88460937 1425.1478186 915.703125 1426.28295898 C915.15322002 1429.58575106 914.51338527 1432.70065569 913.55859375 1435.91796875 C912.28407069 1440.54623681 911.71498079 1445.15341021 911.125 1449.91015625 C910.14129224 1457.49776739 909.00585628 1465.02228886 907.61743164 1472.5456543 C906.78845026 1477.09169879 906.13357372 1481.63518799 905.5625 1486.22265625 C904.90568861 1491.22617067 904.17419342 1496.19842508 903.25 1501.16015625 C903.04761719 1502.26617188 902.84523438 1503.3721875 902.63671875 1504.51171875 C901.08975079 1508.8657304 898.52604288 1511.4455387 894.5 1513.6796875 C890.74038484 1514.97584514 887.60455484 1515.91409889 883.5625 1515.53515625 C883.500625 1516.31890625 883.43875 1517.10265625 883.375 1517.91015625 C882.14349123 1523.40457999 880.21015814 1529.26658115 875.81640625 1533.03125 C870.27492992 1536.28463288 865.87965168 1536.65663994 859.5625 1536.53515625 C859.50642578 1537.48261719 859.50642578 1537.48261719 859.44921875 1538.44921875 C858.9674893 1545.00451754 857.82939205 1551.20090826 856.37890625 1557.60546875 C855.42187358 1562.00985285 854.78282074 1566.45308509 854.125 1570.91015625 C853.23243459 1576.88594701 852.12106692 1582.69752105 850.5625 1588.53515625 C848.79749581 1595.15267195 847.64429113 1601.76774275 846.63671875 1608.5390625 C845.90999564 1613.40494766 845.06369152 1618.21594938 844.0625 1623.03515625 C842.94735264 1628.41645708 842.05292407 1633.78951752 841.25 1639.22265625 C840.02839261 1647.35827483 838.37684527 1655.37332914 836.625 1663.41015625 C833.38125741 1678.30111446 830.32447027 1693.15557912 828.11791992 1708.23901367 C826.75645187 1717.51574276 825.28695661 1726.71948948 823.125 1735.84765625 C822.94396729 1736.65920166 822.76293457 1737.47074707 822.57641602 1738.30688477 C821.3137517 1743.33331179 819.73110019 1746.19270829 815.5625 1749.53515625 C810.7246038 1752.31457505 806.05052461 1752.87815779 800.5625 1752.53515625 C800.48 1753.83453125 800.3975 1755.13390625 800.3125 1756.47265625 C799.75590489 1762.10221826 798.48345888 1767.46137607 797.14550781 1772.94335938 C796.01017656 1777.60290558 794.98195758 1782.2642251 794.0625 1786.97265625 C792.97659748 1792.50782422 791.83469316 1798.02597259 790.625 1803.53515625 C790.47933594 1804.2098999 790.33367187 1804.88464355 790.18359375 1805.57983398 C789.15965062 1810.20113663 787.96083605 1814.75593081 786.70703125 1819.3203125 C784.37858629 1827.88815196 782.56994176 1836.55515846 780.75747681 1845.24411011 C777.9610734 1858.63082276 775.08378109 1871.9720416 771.66723633 1885.21630859 C768.01174641 1899.43707156 764.82105059 1913.8007602 762.0625 1928.22265625 C760.6232978 1935.62184875 758.75294461 1942.90053017 756.89892578 1950.20410156 C755.15200161 1957.10753103 753.50069754 1964.02538335 751.9375 1970.97265625 C751.73342529 1971.87532227 751.52935059 1972.77798828 751.3190918 1973.70800781 C750.36756533 1977.92624959 749.42844562 1982.14686035 748.50390625 1986.37109375 C744.08179444 2006.29508137 744.08179444 2006.29508137 736.5625 2011.53515625 C733.58203125 2012.84375 733.58203125 2012.84375 730.375 2013.97265625 C725.36652351 2015.8113537 720.68539072 2017.90147009 715.953125 2020.3515625 C712.75113268 2021.93686262 709.45950059 2023.21258717 706.12890625 2024.5 C703.38946152 2025.60495107 700.73441798 2026.83873568 698.0625 2028.09765625 C694.55589125 2029.7225496 691.16359073 2031.01423046 687.4375 2032.03515625 C683.15334675 2033.23120534 679.66944891 2035.02889261 675.84765625 2037.2734375 C671.30362262 2039.78236547 666.40602493 2041.49765391 661.5390625 2043.2734375 C656.63765655 2045.0639511 651.91828458 2047.15040727 647.1796875 2049.3359375 C645.00659495 2050.33166796 642.82643613 2051.29200621 640.625 2052.22265625 C637.66387452 2053.44298843 637.66387452 2053.44298843 635.3125 2054.72265625 C633.5625 2055.53515625 633.5625 2055.53515625 630.5625 2055.53515625 C630.40394531 2056.47617188 630.24539063 2057.4171875 630.08203125 2058.38671875 C627.69668099 2071.1173726 627.69668099 2071.1173726 622.5625 2075.53515625 C608.21493723 2084.02657095 588.6757947 2079.35227384 573.39990234 2075.90234375 C571.54791853 2075.46983432 571.54791853 2075.46983432 569.5625 2075.53515625 C567.92270702 2081.78032527 566.43606575 2088.02438529 565.22265625 2094.3671875 C563.67883561 2102.24512254 561.81345983 2110.03168832 559.88922119 2117.82415771 C559.29658199 2120.22463184 558.70808814 2122.62609102 558.12060547 2125.02783203 C557.32036477 2128.29818548 556.51883248 2131.56821657 555.71582031 2134.83789062 C550.11837442 2157.21096917 550.11837442 2157.21096917 545.296875 2179.7578125 C542.77910961 2192.70823344 539.96402457 2205.55253474 536.30395508 2218.22949219 C534.29603466 2225.26241551 532.92111895 2232.35145857 531.5625 2239.53515625 C530.92111393 2242.54165345 530.24608197 2245.53791224 529.5625 2248.53515625 C530.31789063 2248.53773438 531.07328125 2248.5403125 531.8515625 2248.54296875 C539.87029558 2248.82465727 547.25189266 2250.19933104 555 2252.22265625 C555.93473145 2252.4542041 556.86946289 2252.68575195 557.83251953 2252.92431641 C565.75222833 2255.09610114 571.02462445 2258.84909938 575.75 2265.59765625 C577.37370969 2267.88383949 578.95659926 2269.98399152 580.8125 2272.09765625 C584.85825281 2277.73281195 584.81604503 2283.98356402 585.28125 2290.6875 C585.6208687 2294.12613935 586.59864015 2297.22188803 587.5625 2300.53515625 C588.71138627 2308.87489831 588.73711165 2317.26905198 588.765625 2325.671875 C588.77132507 2326.99129593 588.77702515 2328.31071686 588.78289795 2329.67012024 C588.79331291 2332.44260027 588.79921937 2335.21505208 588.80273438 2337.98754883 C588.8082438 2341.52113327 588.83236351 2345.05433727 588.86070633 2348.58780193 C588.88389389 2351.99081839 588.88578313 2355.39378373 588.890625 2358.796875 C588.9091452 2360.68462898 588.9091452 2360.68462898 588.92803955 2362.61051941 C588.89195307 2376.86134887 582.54492483 2389.53168584 573.5625 2400.53515625 C571.8938224 2402.09181614 570.19051424 2403.55810717 568.40625 2404.98046875 C566.41298333 2406.60938182 566.41298333 2406.60938182 564.2109375 2408.953125 C561.52045795 2411.57614415 558.80422332 2413.62999917 555.6875 2415.72265625 C554.70007812 2416.39683594 553.71265625 2417.07101563 552.6953125 2417.765625 C546.80544226 2421.09244697 541.23701986 2421.86187487 534.5625 2421.78515625 C533.55316406 2421.79675781 533.55316406 2421.79675781 532.5234375 2421.80859375 C527.81302382 2421.79040682 523.98765911 2420.98716158 519.5625 2419.53515625 C519.376875 2420.36015625 519.19125 2421.18515625 519 2422.03515625 C517.34173351 2426.07267466 515.15030297 2428.42822142 512.12109375 2431.5078125 C509.81082562 2434.51289812 509.40350317 2437.23216418 509.86035156 2440.97607422 C510.0559668 2441.81799316 510.25158203 2442.65991211 510.453125 2443.52734375 C510.77301392 2444.94297607 510.77301392 2444.94297607 511.09936523 2446.38720703 C511.33469971 2447.38478027 511.57003418 2448.38235352 511.8125 2449.41015625 C512.28866193 2451.50891025 512.76392457 2453.60786849 513.23828125 2455.70703125 C513.4698291 2456.71958984 513.70137695 2457.73214844 513.93994141 2458.77539062 C514.6809921 2462.06042475 515.35388908 2465.355201 516 2468.66015625 C517.48144279 2476.14312579 518.97995671 2483.6224201 520.5 2491.09765625 C520.74097412 2492.30502441 520.98194824 2493.51239258 521.23022461 2494.75634766 C522.72057803 2502.05011451 524.51328964 2509.17215591 526.65478516 2516.30273438 C527.94357855 2520.89219767 528.82093947 2525.53527926 529.71484375 2530.21484375 C530.93453768 2536.54757927 532.3489923 2542.8395311 533.72851562 2549.13891602 C534.84209951 2554.22486762 535.93786324 2559.31315676 537 2564.41015625 C538.39317666 2570.96206708 539.98347687 2577.46337012 541.5625 2583.97265625 C543.46453086 2591.8227097 545.26321119 2599.65628379 546.78125 2607.58984375 C547.98492594 2613.80332475 549.39061289 2619.97661422 550.76196289 2626.15478516 C552.00289434 2631.79127555 553.10616697 2637.42762383 554.05200195 2643.12158203 C554.54513498 2645.45305652 555.25611858 2647.47236088 556.1875 2649.66015625 C558.94897656 2657.45146511 558.97103796 2668.49704236 556.375 2676.28515625 C550.99582875 2685.93056677 541.15735446 2688.44308725 531.3125 2692.03515625 C530.49201172 2692.33558838 529.67152344 2692.63602051 528.82617188 2692.94555664 C510.65727314 2699.53515625 510.65727314 2699.53515625 505.5625 2699.53515625 C505.84915527 2700.55331421 505.84915527 2700.55331421 506.14160156 2701.59204102 C506.4094043 2702.54393311 506.67720703 2703.4958252 506.953125 2704.4765625 C507.24888428 2705.52706787 507.54464355 2706.57757324 507.84936523 2707.65991211 C508.49674661 2709.97062875 509.13941476 2712.28267057 509.77758789 2714.59594727 C511.70856459 2721.65075947 511.70856459 2721.65075947 513.91796875 2728.62109375 C520.98598503 2750.51408279 515.69104733 2772.40194877 509.62890625 2793.77099609 C506.55108302 2804.63497929 503.77358883 2815.57492932 501.0625 2826.53515625 C498.38133449 2837.31607647 495.59838742 2848.05822457 492.6796875 2858.77734375 C492.37289063 2859.91429688 492.06609375 2861.05125 491.75 2862.22265625 C491.42257812 2863.43179688 491.09515625 2864.6409375 490.7578125 2865.88671875 C489.74330977 2869.74040777 488.83448656 2873.61528132 487.9296875 2877.49609375 C487.63296143 2878.74430908 487.33623535 2879.99252441 487.03051758 2881.27856445 C486.43578881 2883.78687995 485.85445606 2886.29841688 485.2878418 2888.81323242 C483.47660287 2896.3847022 481.95523739 2901.20517791 475.625 2906.00390625 C467.30203657 2910.16538796 458.30647063 2912.34584786 449.36474609 2914.7734375 C444.92330499 2915.98072938 440.49218641 2917.22305777 436.0625 2918.47265625 C435.24898071 2918.69869034 434.43546143 2918.92472443 433.59729004 2919.15760803 C429.24812451 2920.38975682 424.99037435 2921.70452257 420.77612305 2923.34350586 C408.30153396 2928.12561558 397.20269219 2929.53340047 383.88647461 2929.22802734 C380.86548421 2929.15994179 377.84786463 2929.1459969 374.82617188 2929.140625 C358.82253637 2929.01888936 343.48346915 2927.66594901 328.5625 2921.53515625 C325.71394111 2920.45755099 322.85617661 2919.40487828 320 2918.34765625 C312.90428987 2915.70605119 312.90428987 2915.70605119 310.5625 2914.53515625 C310.42714844 2915.24414062 310.29179688 2915.953125 310.15234375 2916.68359375 C308.44141765 2925.14601864 306.42140267 2933.53910978 304.3125 2941.91015625 C304.04945068 2943.02696777 303.78640137 2944.1437793 303.51538086 2945.29443359 C302.08464403 2950.83103314 300.81665406 2954.69876661 296.765625 2958.82421875 C294.92052401 2960.62697353 294.92052401 2960.62697353 293.5625 2962.53515625 C293.46793067 2966.09726846 293.46793067 2966.09726846 294.07617188 2968.37890625 C295.01130261 2972.52502806 294.78820736 2976.80216414 294.8125 2981.03515625 C294.833125 2981.93363281 294.85375 2982.83210938 294.875 2983.7578125 C294.91674995 2990.92836646 293.89492646 2996.53632223 289.375 3002.34765625 C283.82875055 3006.66140582 278.28505301 3008.1176001 271.28125 3007.890625 C263.59879335 3006.88616587 256.7883659 3004.10079125 250.5625 2999.53515625 C249.17569347 2998.74819858 247.77878127 2997.97891869 246.375 2997.22265625 C242.88087707 2995.31464272 239.52899538 2993.2617631 236.1875 2991.09765625 C230.78693161 2987.6226387 225.2296822 2984.54961487 219.5625 2981.53515625 C210.92640294 2976.89613076 202.36795992 2972.20080826 194.3125 2966.59765625 C189.37624324 2963.24206132 184.06961203 2960.71842768 178.69921875 2958.1484375 C176.04542411 2956.7835344 173.78038363 2955.52303713 171.5625 2953.53515625 C171.5625 2952.87515625 171.5625 2952.21515625 171.5625 2951.53515625 C170.71365234 2951.35339844 170.71365234 2951.35339844 169.84765625 2951.16796875 C163.54154535 2949.42166112 157.81324055 2945.76968777 152.375 2942.22265625 C148.04804898 2939.40126386 143.63626481 2936.92126824 139.0625 2934.53515625 C131.73143193 2930.6996785 124.82565825 2926.36670415 117.93359375 2921.7890625 C111.72649563 2917.73231278 105.41804707 2914.37542061 98.7265625 2911.2109375 C95.65482684 2909.58405528 93.24384403 2907.72736621 90.5625 2905.53515625 C89.15008502 2904.77803916 87.71076115 2904.06918526 86.25 2903.41015625 C81.45971031 2901.10451607 77.03743841 2898.3883014 72.5625 2895.53515625 C68.31008462 2892.82786859 64.12718048 2890.19412675 59.5625 2888.03515625 C54.2472828 2885.52120217 49.39670141 2882.33921435 44.4453125 2879.1875 C40.1586539 2876.47800825 35.85228588 2874.11774209 31.265625 2871.94921875 C26.77338795 2869.59923347 22.53469592 2866.83567581 18.26953125 2864.09960938 C12.62859467 2860.40495007 12.62859467 2860.40495007 6.5625 2857.53515625 C3.96259313 2858.06420238 3.96259313 2858.06420238 1.5625 2859.53515625 C0.65113281 2860.00953125 -0.26023437 2860.48390625 -1.19921875 2860.97265625 C-2.16472656 2861.48828125 -3.13023438 2862.00390625 -4.125 2862.53515625 C-8.20075489 2864.66793485 -11.05478926 2865.71197812 -15.625 2865.84765625 C-18.47269435 2866.26036558 -19.91622202 2866.85230058 -21.67724609 2869.15917969 C-24.2810525 2873.4076572 -26.368849 2877.88385592 -28.43896484 2882.40966797 C-33.17860323 2892.49849236 -40.11032747 2897.7934734 -49.1875 2903.96484375 C-51.57542957 2905.57507428 -51.57542957 2905.57507428 -54.125 2907.84765625 C-57.9860387 2910.66517098 -61.87414101 2911.35750182 -66.53125 2911.88671875 C-73.01396035 2912.64501744 -76.81089784 2913.21635404 -81.3828125 2917.890625 C-85.71723182 2921.35980853 -91.45151672 2922.89435918 -96.61425781 2924.828125 C-99.14875273 2925.81097145 -101.60212208 2926.94322673 -104.0625 2928.09765625 C-109.07280811 2930.43430219 -114.19282931 2932.3591192 -119.39453125 2934.2265625 C-125.53752393 2936.86828593 -128.92915993 2939.71516983 -132.3125 2945.47265625 C-135.75501264 2950.86920463 -138.72625773 2953.78316653 -144.4375 2956.53515625 C-149.014118 2958.97141626 -152.89760002 2961.59352786 -156.76171875 2965.0703125 C-158.4375 2966.53515625 -158.4375 2966.53515625 -160.5625 2967.83203125 C-163.19367928 2970.2220191 -163.21677292 2972.25057458 -163.75 2975.72265625 C-165.11472084 2982.42694061 -167.49196557 2985.9506896 -172.4375 2990.53515625 C-173.30375 2991.42203125 -174.17 2992.30890625 -175.0625 2993.22265625 C-175.84625 2993.98578125 -176.63 2994.74890625 -177.4375 2995.53515625 C-178.20449219 2996.31890625 -178.97148438 2997.10265625 -179.76171875 2997.91015625 C-182.4375 3000.53515625 -182.4375 3000.53515625 -185.04296875 3002.6484375 C-189.90985241 3006.79375596 -192.829631 3009.90382676 -193.59057617 3016.4453125 C-193.69671989 3017.83672168 -193.79586173 3019.228683 -193.88793945 3020.62109375 C-194.35343551 3027.46902173 -196.16885632 3033.62179993 -201.4140625 3038.296875 C-203.4375 3039.53515625 -203.4375 3039.53515625 -206.4375 3039.53515625 C-206.664375 3040.58703125 -206.89125 3041.63890625 -207.125 3042.72265625 C-209.21082186 3049.85159534 -216.5044626 3054.50190993 -222.4375 3058.53515625 C-223.31535156 3058.80585938 -224.19320312 3059.0765625 -225.09765625 3059.35546875 C-227.72057296 3060.35813288 -227.72057296 3060.35813288 -228.58984375 3063.328125 C-228.84894531 3064.44832031 -229.10804688 3065.56851563 -229.375 3066.72265625 C-230.96772721 3072.51148407 -232.66057866 3076.74900378 -237.4375 3080.53515625 C-238.489375 3080.92703125 -239.54125 3081.31890625 -240.625 3081.72265625 C-243.61768815 3083.22456166 -243.61768815 3083.22456166 -244.1640625 3085.88671875 C-244.35742188 3086.86382813 -244.55078125 3087.8409375 -244.75 3088.84765625 C-245.86780456 3094.31691427 -247.75541134 3098.34454378 -250.75 3102.97265625 C-251.11714111 3103.55120361 -251.48428223 3104.12975098 -251.86254883 3104.72583008 C-257.15500642 3112.62606551 -262.54550307 3115.43099647 -271.4375 3117.84765625 C-272.36651123 3118.10474365 -273.29552246 3118.36183105 -274.25268555 3118.62670898 C-283.48455405 3121.03672432 -293.62729733 3122.76079985 -302.65625 3118.62890625 C-306.33176015 3116.37201405 -309.36162596 3113.53872222 -312.4375 3110.53515625 C-313.32566406 3109.6740625 -314.21382812 3108.81296875 -315.12890625 3107.92578125 C-322.24413515 3100.92188594 -322.24413515 3100.92188594 -323.4375 3098.53515625 C-325.4663453 3098.16467146 -327.51283351 3097.88893451 -329.5625 3097.66015625 C-335.16316587 3096.89614902 -338.82593375 3095.75252805 -343.4375 3092.53515625 C-343.4375 3091.87515625 -343.4375 3091.21515625 -343.4375 3090.53515625 C-343.97632813 3090.45523438 -344.51515625 3090.3753125 -345.0703125 3090.29296875 C-351.85267635 3088.12171696 -359.85391618 3081.24545921 -364.32421875 3075.70703125 C-366.8764918 3070.72785998 -367.5712799 3065.01361844 -368.4375 3059.53515625 C-369.85405793 3059.50791475 -371.27077045 3059.48865158 -372.6875 3059.47265625 C-373.47640625 3059.46105469 -374.2653125 3059.44945313 -375.078125 3059.4375 C-377.38418151 3059.44945613 -377.38418151 3059.44945613 -379.34075928 3060.03118896 C-382.86538627 3060.87835937 -386.47075374 3060.71929177 -390.078125 3060.73828125 C-390.91913757 3060.74398132 -391.76015015 3060.7496814 -392.62664795 3060.7555542 C-394.40522002 3060.76498817 -396.18380944 3060.77153181 -397.96240234 3060.77539062 C-400.66405301 3060.78507223 -403.36493473 3060.81610046 -406.06640625 3060.84765625 C-407.79947468 3060.85418948 -409.53254852 3060.85943869 -411.265625 3060.86328125 C-412.46448334 3060.88180145 -412.46448334 3060.88180145 -413.68756104 3060.9006958 C-420.42230455 3060.87435437 -425.83964346 3059.52968545 -431.296875 3055.33984375 C-433.89002804 3051.94224542 -434.86752662 3048.77276412 -435.6875 3044.66015625 C-435.85459473 3043.87914551 -436.02168945 3043.09813477 -436.19384766 3042.29345703 C-437.42262587 3035.98902209 -437.69546955 3029.81839388 -437.8125 3023.41015625 C-438.03708823 3011.79601519 -440.65460997 3001.33452625 -443.74462891 2990.19091797 C-444.7031102 2986.51707741 -445.35341734 2982.83886574 -446 2979.09765625 C-447.84281355 2969.61881644 -451.22959505 2964.28895134 -458.578125 2958.18359375 C-464.28123495 2953.12747526 -465.20712667 2946.90812011 -466.22387695 2939.68945312 C-466.53177038 2937.52606791 -466.53177038 2937.52606791 -467.4375 2934.53515625 C-469.32222568 2933.22289585 -469.32222568 2933.22289585 -471.4375 2932.53515625 C-482.04171366 2921.06780892 -480.8965672 2903.6668138 -481.23828125 2889.24609375 C-481.60005145 2874.15626853 -481.60005145 2874.15626853 -487.4375 2860.53515625 C-489.02278343 2854.72245033 -488.0267628 2850.78212052 -485.4375 2845.53515625 C-484.7775 2844.54515625 -484.1175 2843.55515625 -483.4375 2842.53515625 C-482.7775 2842.53515625 -482.1175 2842.53515625 -481.4375 2842.53515625 C-482.39446141 2838.84729884 -483.35331645 2835.15993627 -484.3125 2831.47265625 C-484.58191406 2830.43431641 -484.85132813 2829.39597656 -485.12890625 2828.32617188 C-485.52529297 2826.8034668 -485.52529297 2826.8034668 -485.9296875 2825.25 C-486.18733887 2824.2592749 -486.44499023 2823.2685498 -486.71044922 2822.24780273 C-487.30634818 2820.02448732 -487.9485558 2817.82840029 -488.625 2815.62890625 C-489.41259749 2812.62997735 -489.64704748 2810.18363939 -489.5625 2807.09765625 C-489.54445313 2806.23269531 -489.52640625 2805.36773438 -489.5078125 2804.4765625 C-489.47300781 2803.51556641 -489.47300781 2803.51556641 -489.4375 2802.53515625 C-490.07816406 2802.509375 -490.71882812 2802.48359375 -491.37890625 2802.45703125 C-497.47958981 2802.05698643 -501.51768736 2801.25011682 -506.4375 2797.53515625 C-509.55512712 2792.55306585 -510.25392882 2787.68076294 -511 2781.97265625 C-511.2248111 2780.30391554 -511.45512688 2778.63590556 -511.69140625 2776.96875 C-511.83557983 2775.8713147 -511.83557983 2775.8713147 -511.98266602 2774.75170898 C-512.99482729 2769.81912057 -514.37054474 2767.16569725 -518.51171875 2764.2578125 C-523.52608006 2760.54849017 -527.8690995 2756.40079018 -532.25 2751.97265625 C-532.98669922 2751.24369141 -533.72339844 2750.51472656 -534.48242188 2749.76367188 C-538.31941554 2745.91281373 -541.63155806 2742.1969968 -544.4375 2737.53515625 C-550.14822926 2738.64045869 -555.24452521 2740.14556835 -560.60546875 2742.3828125 C-564.01857225 2743.77159255 -567.47017031 2745.04000713 -570.9375 2746.28515625 C-572.1234375 2746.713125 -573.309375 2747.14109375 -574.53125 2747.58203125 C-577.4375 2748.53515625 -577.4375 2748.53515625 -579.4375 2748.53515625 C-579.11394531 2749.29054688 -578.79039062 2750.0459375 -578.45703125 2750.82421875 C-577.06481972 2755.89165537 -577.10832042 2760.67943899 -577.125 2765.91015625 C-577.10888672 2766.91304687 -577.09277344 2767.9159375 -577.07617188 2768.94921875 C-577.07126358 2776.44908604 -577.59050582 2782.55875324 -582.9296875 2788.140625 C-583.75726562 2788.93082031 -584.58484375 2789.72101562 -585.4375 2790.53515625 C-586.54541471 2792.60520741 -587.58573763 2794.71258668 -588.5625 2796.84765625 C-591.72477421 2802.98537447 -595.14063946 2806.03529433 -600.84765625 2809.77734375 C-606.48080975 2813.60075111 -609.50345937 2817.94987734 -611.61328125 2824.328125 C-612.94357702 2827.89029141 -614.8442972 2831.10608402 -616.7265625 2834.40234375 C-617.97708084 2836.69210564 -619.0854142 2838.9206851 -620.1484375 2841.29296875 C-624.66979601 2851.07665235 -629.40790803 2856.15399875 -639.4375 2860.53515625 C-646.12385721 2862.78334382 -651.77824616 2863.1650093 -658.4921875 2860.81640625 C-664.66900386 2857.74125304 -666.88559039 2852.48615121 -669.01953125 2846.3359375 C-671.37387436 2838.33673814 -670.87961422 2829.88107947 -670.87329102 2821.61303711 C-670.87688009 2819.43686339 -670.90425948 2817.26189443 -670.93359375 2815.0859375 C-670.93544678 2813.80372314 -670.9372998 2812.52150879 -670.93920898 2811.20043945 C-671.55264596 2806.6881762 -673.02151979 2804.3629558 -675.4375 2800.53515625 C-677.16311215 2795.12823817 -675.70944608 2791.47939134 -673.4375 2786.53515625 C-672.86563965 2785.67772827 -672.86563965 2785.67772827 -672.28222656 2784.80297852 C-671.05876182 2781.51836465 -671.96847299 2779.62570177 -673.03515625 2776.3203125 C-673.42243896 2775.08659912 -673.80972168 2773.85288574 -674.20874023 2772.58178711 C-674.41973358 2771.93144501 -674.63072693 2771.28110291 -674.84811401 2770.61105347 C-675.94486727 2767.22365139 -676.99039206 2763.82050359 -678.0390625 2760.41796875 C-678.35341499 2759.40303596 -678.35341499 2759.40303596 -678.67411804 2758.36759949 C-682.39427399 2746.2733607 -685.26706741 2733.99717013 -686.97265625 2721.45703125 C-687.63284496 2717.30727364 -688.71477172 2713.29612623 -689.79296875 2709.23828125 C-690.34305559 2706.93125039 -690.6449177 2704.8283846 -690.8125 2702.47265625 C-691.53686292 2697.90916988 -693.18806021 2694.45720691 -695.1796875 2690.3203125 C-696.68953352 2686.97708202 -697.65231271 2683.61891351 -698.63671875 2680.09375 C-699.49675043 2677.3458439 -700.58658582 2674.79353501 -701.75 2672.16015625 C-704.75182609 2665.1378664 -706.85015515 2657.90853363 -708.94921875 2650.578125 C-709.83064625 2647.51241537 -710.7804839 2644.51210553 -711.89453125 2641.5234375 C-715.27981485 2632.08770709 -715.73113763 2623.35020943 -715.8125 2613.34765625 C-715.91750448 2602.04611417 -716.56610622 2593.74702477 -723.4375 2584.53515625 C-723.91058594 2583.78878906 -724.38367188 2583.04242187 -724.87109375 2582.2734375 C-728.17617931 2578.60569916 -733.7482518 2578.88099875 -738.4375 2578.53515625 C-741.29126172 2578.41519256 -744.14488795 2578.33091553 -747 2578.24951172 C-755.53256051 2578.00553382 -763.78770759 2577.66873699 -772.125 2575.72265625 C-773.13856567 2575.49280029 -773.13856567 2575.49280029 -774.17260742 2575.25830078 C-779.23618724 2573.9464117 -782.71571736 2571.80753605 -785.87890625 2567.6328125 C-788.86172242 2562.2180138 -790.69153347 2556.79609097 -792.41015625 2550.8671875 C-794.31936504 2544.67496279 -796.90714378 2538.74842756 -799.69140625 2532.90234375 C-802.25709327 2527.51359672 -804.23694741 2522.17966294 -805.9375 2516.47265625 C-808.84319885 2506.81780117 -812.74311975 2499.05090172 -818.88671875 2491.0546875 C-822.12529875 2485.7930147 -822.5915434 2480.65330116 -822.625 2474.59765625 C-823.1433931 2464.92098506 -827.0050905 2457.13456516 -831.41943359 2448.6472168 C-834.62758087 2442.41368468 -837.05422439 2435.95127693 -839.49023438 2429.38500977 C-841.54060018 2423.85414719 -841.54060018 2423.85414719 -843.84375 2418.42578125 C-848.09213868 2408.89725235 -847.98836338 2395.61417741 -845.4375 2385.53515625 C-846.4275 2385.20515625 -847.4175 2384.87515625 -848.4375 2384.53515625 C-849.97265625 2382.49609375 -849.97265625 2382.49609375 -851.5 2379.91015625 C-852.00660156 2379.07226562 -852.51320313 2378.234375 -853.03515625 2377.37109375 C-855.78427118 2371.81160228 -856.60495116 2366.77843551 -856.66333008 2360.671875 C-856.74048347 2352.85366475 -857.18704033 2347.29377728 -861.87109375 2340.78125 C-866.91691461 2333.54597071 -868.47595083 2325.19293818 -867.4375 2316.53515625 C-866.81101562 2314.78332031 -866.81101562 2314.78332031 -866.171875 2312.99609375 C-864.59409952 2306.96921821 -867.29159981 2301.50159869 -869.3125 2295.84765625 C-873.06638026 2285.32316357 -875.55859307 2275.35284541 -871.9375 2264.41015625 C-868.57639832 2253.47857315 -869.61030018 2241.34879087 -872.7578125 2230.52734375 C-875.27031858 2219.46654114 -873.07315139 2208.0281547 -871.16796875 2197.05078125 C-870.32330465 2192.08562531 -869.92373706 2187.12905684 -869.6484375 2182.1015625 C-869.45820852 2179.78710992 -869.03525473 2177.76962036 -868.4375 2175.53515625 C-868.0580327 2170.98154864 -868.66098838 2167.44113014 -869.875 2163.03515625 C-871.48982087 2157.01558925 -871.94957657 2151.19286752 -872.2265625 2144.98046875 C-872.36533645 2141.56072803 -872.36533645 2141.56072803 -873.03125 2138.34375 C-873.63980639 2134.13651881 -872.43237833 2131.21392428 -870.4375 2127.53515625 C-867.875 2124.66015625 -867.875 2124.66015625 -865.4375 2122.53515625 C-861.33404545 2118.4317017 -862.12269184 2112.42849889 -861.81640625 2106.921875 C-861.4375 2103.53515625 -861.4375 2103.53515625 -860.43359375 2100.3046875 C-855.87411033 2083.0501718 -859.13531775 2060.63273269 -867.74609375 2045.078125 C-873.82018191 2035.13827063 -881.48104425 2026.83922982 -891.69140625 2021.13671875 C-894.95968709 2019.23060902 -898.03687213 2017.09006311 -901.125 2014.91015625 C-906.00456406 2011.4716481 -906.00456406 2011.4716481 -911.125 2008.41015625 C-914.0206798 2006.77109221 -916.52262727 2005.0119163 -919.1875 2003.03515625 C-924.33923741 1999.38309504 -929.47927075 1997.48945544 -935.4375 1995.53515625 C-947.48994071 1991.11877726 -947.48994071 1991.11877726 -952.3125 1988.59765625 C-959.48212597 1984.8543568 -967.22898082 1982.09748356 -974.8046875 1979.28515625 C-981.84621712 1976.66825527 -988.48979517 1973.58178456 -995.1640625 1970.15625 C-997.91795141 1968.7924506 -1000.62852494 1967.6177674 -1003.5 1966.53515625 C-1007.49689019 1965.01502752 -1011.13660502 1963.11106499 -1014.875 1961.03515625 C-1019.72500562 1958.36027024 -1024.4561392 1956.33291687 -1029.69140625 1954.5625 C-1033.78402289 1953.03140729 -1037.57859316 1950.97849885 -1041.45703125 1948.9765625 C-1045.0751784 1947.22676394 -1048.75080486 1945.91318771 -1052.57421875 1944.6875 C-1055.04023652 1943.69503719 -1056.94723441 1942.61179366 -1059.19140625 1941.2265625 C-1066.81210967 1936.89937169 -1075.62020231 1935.15512726 -1084.02832031 1932.91015625 C-1086.29906459 1932.29927927 -1088.56349174 1931.66825116 -1090.828125 1931.03515625 C-1091.51779358 1930.85791016 -1092.20746216 1930.68066406 -1092.91802979 1930.49804688 C-1097.6532744 1929.16248384 -1100.3016763 1927.29986373 -1103.4375 1923.53515625 C-1108.79010467 1913.01451949 -1106.64001641 1903.46181613 -1103.25 1892.66015625 C-1102.9394165 1891.75628174 -1102.62883301 1890.85240723 -1102.30883789 1889.92114258 C-1100.49514811 1884.52862639 -1100.49514811 1884.52862639 -1101.70703125 1879.08203125 C-1102.27808594 1878.2415625 -1102.84914063 1877.40109375 -1103.4375 1876.53515625 C-1104.8519337 1871.88773123 -1104.28792091 1868.79763213 -1102.45703125 1864.43359375 C-1100.89733884 1861.52933892 -1098.99112458 1859.59051262 -1096.4375 1857.53515625 C-1094.27734375 1856.90625 -1094.27734375 1856.90625 -1092.4375 1856.53515625 C-1092.67726563 1855.98988281 -1092.91703125 1855.44460938 -1093.1640625 1854.8828125 C-1095.51911609 1848.89278488 -1095.84109463 1844.56770748 -1093.4375 1838.53515625 C-1090.92866137 1834.72864246 -1087.69533319 1831.71353009 -1084.4375 1828.53515625 C-1083.674375 1827.66890625 -1082.91125 1826.80265625 -1082.125 1825.91015625 C-1078.19357791 1822.43587626 -1073.92492437 1820.88223872 -1068.75 1820.16015625 C-1066.17720919 1819.68987232 -1066.17720919 1819.68987232 -1064.25 1817.09765625 C-1060.34061575 1813.53577282 -1056.68156695 1812.67437927 -1051.4375 1812.53515625 C-1048.26622448 1813.1993467 -1045.38945866 1814.20891395 -1042.4375 1815.53515625 C-1042.32148437 1814.93058594 -1042.20546875 1814.32601563 -1042.0859375 1813.703125 C-1041.10032867 1810.40786657 -1038.97461655 1808.77023512 -1036.4375 1806.53515625 C-1035.4475 1806.20515625 -1034.4575 1805.87515625 -1033.4375 1805.53515625 C-1033.128125 1804.75140625 -1032.81875 1803.96765625 -1032.5 1803.16015625 C-1031.4375 1800.53515625 -1031.4375 1800.53515625 -1029.375 1799.22265625 C-1026.76183882 1796.94667716 -1027.03186292 1794.97895694 -1026.76953125 1791.66015625 C-1026.07515643 1787.21615743 -1023.66854376 1783.62137133 -1020.3125 1780.66015625 C-1017.83555777 1777.85295505 -1017.66684626 1775.34063107 -1017 1771.7265625 C-1016.20805329 1768.64127011 -1014.66448052 1766.76213677 -1012.4375 1764.53515625 C-1011.7775 1764.20515625 -1011.1175 1763.87515625 -1010.4375 1763.53515625 C-1010.2374816 1761.60164506 -1010.03773 1759.66810557 -1009.83984375 1757.734375 C-1009.01556344 1753.22884282 -1006.70937119 1749.72994434 -1003.375 1746.59765625 C-1001.4375 1745.53515625 -1001.4375 1745.53515625 -998.4375 1745.53515625 C-998.67726563 1745.00148438 -998.91703125 1744.4678125 -999.1640625 1743.91796875 C-1001.63290127 1737.71366959 -1001.89827773 1732.81892796 -999.4375 1726.53515625 C-996.9375 1723.53515625 -996.9375 1723.53515625 -994.4375 1721.53515625 C-992.03358072 1719.13123697 -992.04713906 1718.02116902 -991.5625 1714.72265625 C-990.27106014 1707.76489886 -986.88091856 1704.78367806 -981.4375 1700.53515625 C-980.57125 1699.64828125 -979.705 1698.76140625 -978.8125 1697.84765625 C-976.4375 1695.53515625 -976.4375 1695.53515625 -973.4375 1694.53515625 C-973.06625 1693.45234375 -973.06625 1693.45234375 -972.6875 1692.34765625 C-971.14636346 1688.88009905 -969.15877414 1687.36690385 -966.24609375 1685.0234375 C-964.20418831 1683.39770277 -964.20418831 1683.39770277 -961.6875 1680.72265625 C-959.4375 1678.53515625 -959.4375 1678.53515625 -956.4375 1677.53515625 C-956.06625 1676.45234375 -956.06625 1676.45234375 -955.6875 1675.34765625 C-954.14636346 1671.88009905 -952.15877414 1670.36690385 -949.24609375 1668.0234375 C-947.20418831 1666.39770277 -947.20418831 1666.39770277 -944.6875 1663.72265625 C-942.4375 1661.53515625 -942.4375 1661.53515625 -939.4375 1660.53515625 C-939.06625 1659.45234375 -939.06625 1659.45234375 -938.6875 1658.34765625 C-937.14343476 1654.87350945 -935.15146875 1653.35675366 -932.2265625 1651.015625 C-930.23163414 1649.43631736 -930.23163414 1649.43631736 -928 1646.84765625 C-924.30680556 1643.51477346 -920.17185049 1642.09318696 -915.33203125 1641.10546875 C-913.14216856 1640.61736725 -913.14216856 1640.61736725 -911.1875 1638.16015625 C-907.30417403 1634.4533451 -903.06737454 1632.84095562 -897.75 1632.22265625 C-894.10260123 1631.13829445 -892.19193935 1628.77112216 -890.4375 1625.53515625 C-889.79522823 1622.99045923 -889.37235641 1620.45647942 -888.94921875 1617.8671875 C-887.66013119 1611.99249075 -883.16611834 1609.62323353 -878.4375 1606.53515625 C-874.64754114 1603.12419327 -871.71408472 1599.34028309 -868.76953125 1595.20703125 C-867.4375 1593.53515625 -867.4375 1593.53515625 -865.4375 1592.53515625 C-863.98862011 1588.23075114 -864.04559344 1583.65748856 -863.8125 1579.16015625 C-863.7609375 1578.32226562 -863.709375 1577.484375 -863.65625 1576.62109375 C-863.4119379 1572.05102039 -863.66447811 1568.05999988 -864.4375 1563.53515625 C-863.66204614 1559.15938087 -862.0641768 1556.11707042 -858.8125 1553.09765625 C-855.82513026 1549.87444153 -855.99630104 1548.03254673 -855.72265625 1543.80859375 C-855.16965426 1539.39972857 -853.20231539 1536.00234244 -849.79296875 1533.16796875 C-848.59709697 1532.32903473 -847.38436185 1531.51364354 -846.15625 1530.72265625 C-844.1832245 1529.45092925 -844.1832245 1529.45092925 -842 1526.91015625 C-838.33479348 1523.51313558 -834.21361023 1522.09661674 -829.3515625 1521.11328125 C-826.29980396 1520.19152561 -824.62517676 1517.77892729 -822.4375 1515.53515625 C-821.4475 1515.20515625 -820.4575 1514.87515625 -819.4375 1514.53515625 C-819.06625 1513.39046875 -819.06625 1513.39046875 -818.6875 1512.22265625 C-816.93524202 1508.45530159 -814.19712501 1506.96425347 -810.4375 1505.53515625 C-809.04755998 1505.34103055 -807.65008654 1505.19448466 -806.25 1505.09765625 C-802.3540325 1504.92432628 -802.3540325 1504.92432628 -800.25 1502.22265625 C-799.651875 1501.33578125 -799.05375 1500.44890625 -798.4375 1499.53515625 C-796.78747172 1498.18128689 -795.1200613 1496.84837483 -793.4375 1495.53515625 C-792.591875 1494.64828125 -791.74625 1493.76140625 -790.875 1492.84765625 C-788.44335972 1490.54071547 -787.56835306 1490.13749796 -784.4375 1489.53515625 C-784.54911178 1486.38870224 -784.67930557 1483.24326468 -784.8125 1480.09765625 C-784.8434375 1479.21916016 -784.874375 1478.34066406 -784.90625 1477.43554688 C-785.13507404 1472.26793728 -785.73648138 1467.53715463 -787.12573242 1462.54760742 C-787.70498783 1458.80852965 -786.32285709 1455.71493762 -784.4375 1452.53515625 C-782.125 1450.03515625 -782.125 1450.03515625 -779.4375 1447.53515625 C-778.43960035 1446.19473429 -777.461513 1444.83941426 -776.5 1443.47265625 C-773.89483613 1439.90558572 -771.21720101 1437.86731219 -767.4375 1435.53515625 C-763.70584938 1432.17667069 -760.7867639 1428.45818772 -757.8671875 1424.40234375 C-756.4375 1422.53515625 -756.4375 1422.53515625 -754.81640625 1421.06640625 C-753.06830585 1419.12517294 -752.88910208 1417.72210925 -752.5 1415.16015625 C-751.69912127 1411.02789123 -750.47275853 1408.57041478 -747.4375 1405.53515625 C-746.7775 1405.20515625 -746.1175 1404.87515625 -745.4375 1404.53515625 C-745.31375 1403.33890625 -745.19 1402.14265625 -745.0625 1400.91015625 C-744.50504509 1395.71653464 -742.88096899 1391.57234773 -738.79296875 1388.1640625 C-737.6020856 1387.33122265 -736.39606488 1386.51960292 -735.17578125 1385.73046875 C-733.15202475 1384.4165102 -733.15202475 1384.4165102 -730.6875 1381.78515625 C-728.4375 1379.53515625 -728.4375 1379.53515625 -725.4375 1378.53515625 C-725.004375 1377.39046875 -725.004375 1377.39046875 -724.5625 1376.22265625 C-723.15137097 1372.85162579 -721.28795476 1371.7890042 -718.4375 1369.53515625 C-717.59395805 1368.3907331 -716.78278761 1367.22196328 -716 1366.03515625 C-713.6579673 1362.57012995 -710.98363954 1360.77076596 -707.4375 1358.53515625 C-706.41426564 1357.21956922 -705.40623032 1355.8913787 -704.4375 1354.53515625 C-703.7775 1354.53515625 -703.1175 1354.53515625 -702.4375 1354.53515625 C-702.25228364 1351.57169455 -702.25460176 1350.20425997 -703.4375 1347.53515625 C-706.803469 1344.42436901 -710.59970587 1342.02453623 -714.4375 1339.53515625 C-716.10881426 1338.37515731 -717.77573513 1337.20879436 -719.4375 1336.03515625 C-720.24960937 1335.46796875 -721.06171875 1334.90078125 -721.8984375 1334.31640625 C-731.67567518 1327.45729797 -740.96482896 1320.73514164 -748.7109375 1311.57421875 C-749.87955901 1310.19408204 -751.07334059 1308.83492674 -752.2890625 1307.49609375 C-761.07741812 1297.81020394 -762.85719379 1290.51457521 -762.4375 1277.53515625 C-762.27705231 1276.05281121 -762.09464161 1274.57239278 -761.875 1273.09765625 C-761.2532382 1269.61386558 -761.2532382 1269.61386558 -762.0625 1266.53515625 C-762.59149514 1262.30319509 -761.45438056 1259.24805001 -759.4375 1255.53515625 C-756.8125 1252.59765625 -756.8125 1252.59765625 -754.4375 1250.53515625 C-752.54939759 1248.64705384 -753.17234703 1245.38843647 -753.0859375 1242.8671875 C-753.06278473 1242.1947551 -753.03963196 1241.52232269 -753.01577759 1240.82951355 C-752.96805485 1239.4013139 -752.9228311 1237.97302893 -752.87988281 1236.54467773 C-752.81330299 1234.37383796 -752.73532698 1232.20361913 -752.65625 1230.03320312 C-752.61128251 1228.64455363 -752.5669907 1227.25588207 -752.5234375 1225.8671875 C-752.4826709 1224.60624268 -752.4419043 1223.34529785 -752.39990234 1222.04614258 C-752.43518261 1218.75156171 -752.85584916 1215.76904052 -753.4375 1212.53515625 C-752.66012787 1208.1485564 -751.03180048 1205.10115671 -747.8125 1202.03515625 C-745.07318642 1199.15166827 -744.99754678 1197.46431714 -744.734375 1193.58984375 C-744.09688603 1189.17774903 -741.62714763 1185.58484534 -738.3125 1182.66015625 C-736.22061791 1180.28935655 -736.00896621 1179.14046317 -735.4375 1176.09765625 C-734.65401029 1171.95538019 -733.58286679 1169.5007878 -730.4375 1166.53515625 C-729.57125 1166.20515625 -728.705 1165.87515625 -727.8125 1165.53515625 C-725.20067902 1164.75689384 -725.20067902 1164.75689384 -724.375 1162.09765625 C-724.065625 1161.25203125 -723.75625 1160.40640625 -723.4375 1159.53515625 C-722.4165625 1158.88546875 -722.4165625 1158.88546875 -721.375 1158.22265625 C-718.76183882 1155.94667716 -719.03186292 1153.97895694 -718.76953125 1150.66015625 C-718.07515643 1146.21615743 -715.66854376 1142.62137133 -712.3125 1139.66015625 C-710.22061791 1137.28935655 -710.00896621 1136.14046317 -709.4375 1133.09765625 C-708.65277053 1128.9420019 -707.54052218 1126.54952065 -704.4375 1123.53515625 C-701.6875 1121.72265625 -701.6875 1121.72265625 -699.4375 1120.53515625 C-699.97375 1119.42140625 -700.51 1118.30765625 -701.0625 1117.16015625 C-703.00996711 1111.96383405 -702.24421547 1107.68830037 -700.4375 1102.53515625 C-697.84036632 1098.26843664 -694.57071183 1096.23439663 -690.4375 1093.53515625 C-687.01986566 1090.7861895 -685.60750665 1089.53206601 -684.86328125 1085.16796875 C-685.07127924 1081.28999971 -685.07127924 1081.28999971 -688.41015625 1079.015625 C-689.75912925 1078.22632333 -691.12377106 1077.46341207 -692.5 1076.72265625 C-693.97282457 1075.87102748 -695.44414444 1075.01679192 -696.9140625 1074.16015625 C-697.66719727 1073.72960938 -698.42033203 1073.2990625 -699.19628906 1072.85546875 C-702.69259713 1070.79577006 -706.02655244 1068.51211591 -709.375 1066.22265625 C-714.02590581 1063.0756578 -718.7026585 1060.17762317 -723.66796875 1057.54296875 C-725.4375 1056.53515625 -725.4375 1056.53515625 -727.875 1054.53515625 C-730.20126682 1052.71953337 -732.16473884 1051.65360402 -734.8125 1050.41015625 C-740.13623602 1047.84335495 -744.8855255 1044.65174756 -749.75830078 1041.33618164 C-754.5854933 1038.06471527 -759.5269536 1035.08350042 -764.58984375 1032.1875 C-770.58788056 1028.70715765 -776.47472666 1025.02070215 -782.0625 1020.91015625 C-784.43817546 1019.17580163 -786.84255117 1017.73195051 -789.4375 1016.34765625 C-793.79014189 1013.99991277 -797.84690057 1011.30405284 -801.9375 1008.53515625 C-806.61131058 1005.37474811 -811.27657172 1002.40198211 -816.2578125 999.7421875 C-822.04083152 996.53976299 -827.63430066 992.91833805 -832.9375 988.97265625 C-836.66784319 986.23766905 -840.72940219 984.17870699 -844.8046875 982.0078125 C-847.6115998 980.43777402 -850.12649123 978.6735432 -852.6953125 976.75 C-854.70381412 975.34945291 -856.783655 974.19910279 -858.9375 973.03515625 C-862.42534546 971.14935506 -865.58651052 969.06111424 -868.7734375 966.7109375 C-870.90073397 965.20784774 -873.15285557 963.95624857 -875.4296875 962.6953125 C-877.94436199 961.24228074 -880.37174404 959.67156991 -882.8125 958.09765625 C-886.19369651 955.92369954 -889.58159095 953.86981826 -893.125 951.97265625 C-896.84053629 949.95979911 -900.07183818 947.59673433 -903.40234375 945.0078125 C-906.21670066 942.97132007 -909.21890016 941.39067194 -912.27734375 939.75390625 C-914.85387035 938.30024206 -917.19140821 936.63864971 -919.5390625 934.84375 C-921.79685268 933.2874543 -924.16334135 931.95831697 -926.55078125 930.61254883 C-928.38093849 929.56745515 -930.18303964 928.48699788 -931.98046875 927.38671875 C-948.1246552 917.51022366 -961.33670586 909.60122802 -980.625 912.91015625 C-982.31767824 913.1889848 -984.01038664 913.4676304 -985.703125 913.74609375 C-986.51845703 913.88241211 -987.33378906 914.01873047 -988.17382812 914.15917969 C-993.25354002 915.00287644 -998.34692535 915.76037882 -1003.4375 916.53515625 C-1004.13858887 916.64327637 -1004.83967773 916.75139648 -1005.56201172 916.86279297 C-1016.66437895 918.57428075 -1027.77597888 920.14113395 -1038.92333984 921.53295898 C-1040.30706787 921.70807007 -1040.30706787 921.70807007 -1041.71875 921.88671875 C-1042.53408203 921.98807129 -1043.34941406 922.08942383 -1044.18945312 922.19384766 C-1046.32111676 922.51748642 -1048.34950435 923.00612084 -1050.4375 923.53515625 C-1052.28962988 923.6873861 -1054.14440457 923.80854607 -1056 923.91015625 C-1064.90116308 924.54094733 -1073.64375483 926.07082506 -1082.4375 927.53515625 C-1090.18256856 928.82047277 -1097.81890165 929.81412866 -1105.66015625 930.2890625 C-1108.31354131 930.44227007 -1108.31354131 930.44227007 -1110.32421875 931.046875 C-1118.62402646 932.96457549 -1128.92987911 932.50144653 -1136.4375 928.53515625 C-1141.14534262 925.50121323 -1143.29165638 922.07774734 -1145.00732422 916.7734375 C-1145.59148412 913.73394944 -1145.56742879 910.81729416 -1145.5703125 907.72265625 C-1145.57126923 907.07192139 -1145.57222595 906.42118652 -1145.57321167 905.75073242 C-1145.57389018 904.37906802 -1145.57205887 903.00740036 -1145.56787109 901.63574219 C-1145.56251812 899.54224399 -1145.56782716 897.44896032 -1145.57421875 895.35546875 C-1145.57355791 894.01953078 -1145.57227663 892.68359294 -1145.5703125 891.34765625 C-1145.56918457 890.13722656 -1145.56805664 888.92679688 -1145.56689453 887.6796875 C-1145.45963128 885.07298802 -1145.17294193 883.01134318 -1144.4375 880.53515625 C-1143.35823142 872.35184134 -1145.290309 866.65368626 -1149.02734375 859.3828125 C-1151.35612541 854.68009275 -1151.53636303 851.04408922 -1151.4296875 845.79296875 C-1151.41292969 844.47941406 -1151.39617187 843.16585937 -1151.37890625 841.8125 C-1151.34801024 839.73658235 -1151.31252068 837.66108122 -1151.26611328 835.58544922 C-1151.22350846 833.57153365 -1151.20138852 831.55721802 -1151.1796875 829.54296875 C-1151.1576123 828.3430127 -1151.13553711 827.14305664 -1151.11279297 825.90673828 C-1151.47502103 822.14555821 -1152.60174177 819.80642965 -1154.4375 816.53515625 C-1155.8521135 811.88714045 -1155.28449065 808.80008339 -1153.4609375 804.43359375 C-1151.3026815 800.43011125 -1148.72209926 797.963356 -1144.4375 796.53515625 C-1143.19430316 789.36188195 -1143.19430316 789.36188195 -1145 782.47265625 C-1146.75559223 778.49438763 -1146.39828765 775.72115523 -1145.2421875 771.58203125 C-1143.57505421 767.34136212 -1141.16530581 765.02036012 -1137.4375 762.53515625 C-1138.92405048 758.56856859 -1140.7763439 754.93486224 -1142.8125 751.22265625 C-1151.54593159 735.1385864 -1151.54593159 735.1385864 -1151.59521484 725.41503906 C-1151.60029556 724.70554108 -1151.60537628 723.99604309 -1151.61061096 723.26504517 C-1151.62129165 721.7274625 -1151.62992081 720.18986451 -1151.63673019 718.65225983 C-1151.64855864 716.21330264 -1151.66802262 713.77451939 -1151.68984985 711.33563232 C-1151.75132513 704.40219974 -1151.80542836 697.4687853 -1151.83886719 690.53515625 C-1151.85988885 686.28990001 -1151.89525236 682.04496214 -1151.93962479 677.79988861 C-1151.95372633 676.18770867 -1151.96249394 674.57547241 -1151.96567917 672.96323395 C-1151.96628055 661.43816327 -1151.96628055 661.43816327 -1155.4375 650.53515625 C-1155.42897608 644.91789066 -1153.33079353 640.54642837 -1149.4375 636.53515625 C-1148.91929688 636.0865625 -1148.40109375 635.63796875 -1147.8671875 635.17578125 C-1146.11013955 633.15949671 -1145.89839168 631.78327447 -1145.5 629.16015625 C-1144.19880058 622.56883458 -1140.13225253 619.11540262 -1135.4375 614.53515625 C-1134.6125 613.66890625 -1133.7875 612.80265625 -1132.9375 611.91015625 C-1130.4375 609.53515625 -1130.4375 609.53515625 -1127.8125 608.03515625 C-1124.78328363 606.12196696 -1123.94217025 604.80974565 -1122.4375 601.53515625 C-1121.97431702 598.31224791 -1121.94905653 595.11173262 -1121.92578125 591.859375 C-1121.90783005 590.93421585 -1121.88987885 590.0090567 -1121.87138367 589.05586243 C-1121.81735921 586.11150622 -1121.78341009 583.16731141 -1121.75 580.22265625 C-1121.71681999 578.22198279 -1121.6823297 576.2213306 -1121.64648438 574.22070312 C-1121.56163716 569.32563741 -1121.49478834 564.43061892 -1121.4375 559.53515625 C-1122.06269531 559.261875 -1122.68789062 558.98859375 -1123.33203125 558.70703125 C-1127.17264623 556.56939768 -1128.08724059 552.68600861 -1129.3125 548.66015625 C-1129.53234385 543.16406009 -1127.79079548 539.03475395 -1124.125 534.97265625 C-1123.238125 534.16828125 -1122.35125 533.36390625 -1121.4375 532.53515625 C-1120.44843455 531.33491196 -1119.46970528 530.12609559 -1118.5 528.91015625 C-1114.78575897 524.55324756 -1110.91343263 522.81356342 -1105.375 521.66015625 C-1101.18163104 520.71684641 -1099.43307253 518.60561809 -1096.4375 515.53515625 C-1093.20591092 513.94211938 -1089.86688572 512.82209613 -1086.3359375 512.11328125 C-1084.11912428 511.61261228 -1084.11912428 511.61261228 -1082.125 509.03515625 C-1078.87416658 506.01112516 -1076.79054257 505.79121758 -1072.4375 505.53515625 C-1072.77355148 501.41852566 -1073.25927272 498.50832951 -1075.4375 494.97265625 C-1077.75081174 490.9966517 -1079.023324 488.15840353 -1077.99609375 483.55859375 C-1076.43521014 478.79566889 -1074.27123433 475.86445185 -1070.4375 472.53515625 C-1068.00734438 470.10500063 -1069.06751913 463.40424859 -1069.03710938 460.03198242 C-1069.12682807 451.93421089 -1070.42027581 444.28535466 -1071.9375 436.34765625 C-1074.10107398 424.83744266 -1074.89968093 413.79932759 -1074.8125 402.09765625 C-1074.80561157 400.99957138 -1074.80561157 400.99957138 -1074.79858398 399.87930298 C-1074.69516939 388.28034165 -1074.69516939 388.28034165 -1073.87402344 382.71875 C-1073.42322531 379.43105002 -1073.42769591 378.56588671 -1075.3125 375.97265625 C-1077.35629637 372.76809748 -1078.3579463 370.43328753 -1078.4375 366.53515625 C-1077.18991918 360.94864392 -1074.9045479 357.22047077 -1070.4375 353.53515625 C-1069.4475 353.20515625 -1068.4575 352.87515625 -1067.4375 352.53515625 C-1066.18857996 345.38942853 -1066.18857996 345.38942853 -1068 338.53515625 C-1070.15474735 333.66226431 -1069.16603221 329.44113736 -1067.4375 324.53515625 C-1065.01249027 320.68858909 -1061.99584014 318.31239733 -1058.4375 315.53515625 C-1057.57125 314.64828125 -1056.705 313.76140625 -1055.8125 312.84765625 C-1053.4375 310.53515625 -1053.4375 310.53515625 -1050.4375 309.53515625 C-1050.14875 308.77203125 -1049.86 308.00890625 -1049.5625 307.22265625 C-1048.13503979 303.81261242 -1046.5144063 302.53872314 -1043.4375 300.53515625 C-1040.625 299.78515625 -1040.625 299.78515625 -1038.4375 299.53515625 C-1038.746875 298.58640625 -1039.05625 297.63765625 -1039.375 296.66015625 C-1040.25904696 293.62124482 -1040.64103288 290.75133812 -1040.875 287.59765625 C-1041.14339062 284.18083717 -1041.70997433 281.58819522 -1043.125 278.47265625 C-1045.03731472 273.83248083 -1044.16558836 270.13204153 -1042.4375 265.53515625 C-1039.90135538 260.64402019 -1037.60255448 258.45939223 -1032.4375 256.53515625 C-1017.43366285 253.23431208 -1004.64106777 257.08442838 -991.33984375 264.0234375 C-984.15986996 267.76320851 -976.82355165 270.80656736 -969.19921875 273.50390625 C-963.09440899 275.78349575 -957.21706687 278.5960482 -951.4375 281.59765625 C-947.51628561 283.59420126 -943.44850921 285.00521186 -939.3046875 286.46875 C-933.16131791 288.75368174 -927.2507814 291.57853862 -921.4375 294.59765625 C-917.52811711 296.5841313 -913.48258453 298.01598733 -909.3515625 299.47265625 C-905.358371 300.92861884 -901.46295818 302.59074986 -897.55078125 304.25 C-893.32344579 305.99503559 -889.03658642 307.56791345 -884.73828125 309.12890625 C-882.06010662 310.26990372 -879.70803577 311.49164585 -877.19921875 312.94140625 C-872.29997642 315.72126425 -867.23007908 317.63999693 -861.9375 319.53515625 C-855.76964213 321.74373418 -850.08417692 324.15625781 -844.40722656 327.4375 C-842.03322691 328.76044279 -839.64241282 329.68874952 -837.0625 330.53515625 C-833.28993308 331.83983564 -829.68015448 333.28476804 -826.0625 334.97265625 C-821.08763506 337.29331365 -816.02807963 339.25120008 -810.87109375 341.12890625 C-808.04540999 342.28618287 -805.41015186 343.54498865 -802.69921875 344.9375 C-797.53389259 347.55926122 -792.24932149 349.61448818 -786.8125 351.59765625 C-785.02710315 352.251008 -783.24321895 352.90850946 -781.4609375 353.5703125 C-780.68669434 353.85269775 -779.91245117 354.13508301 -779.11474609 354.42602539 C-776.87269331 355.35486415 -774.77950232 356.37229183 -772.62719727 357.48486328 C-768.64591361 359.50115531 -764.62597387 360.95682313 -760.37890625 362.3046875 C-759.63148666 362.54877853 -758.88406708 362.79286957 -758.11399841 363.0443573 C-754.96613576 364.07224628 -751.81375692 365.08591859 -748.66137695 366.09985352 C-739.46665742 369.06685821 -730.48194566 372.25384793 -721.58308411 376.02076721 C-714.74573632 378.88811956 -707.78024342 381.12140082 -700.6875 383.28515625 C-698.27420421 384.02397244 -695.86266035 384.76854171 -693.453125 385.51953125 C-691.89513184 385.99471191 -691.89513184 385.99471191 -690.30566406 386.47949219 C-687.4375 387.53515625 -687.4375 387.53515625 -685.00537109 389.01708984 C-681.87633503 390.86690409 -678.81833372 391.80049074 -675.3359375 392.83984375 C-674.65882721 393.04570099 -673.98171692 393.25155823 -673.28408813 393.46365356 C-670.41398588 394.336227 -667.53940396 395.19352268 -664.66455078 396.05029297 C-656.90401753 398.37258049 -649.45321703 400.84031417 -642.12792969 404.34765625 C-637.04496001 406.5911739 -631.70081588 408.04442298 -626.375 409.59765625 C-618.5517816 411.89860284 -610.95847506 414.37901007 -603.4375 417.53515625 C-595.86768944 420.55956372 -588.30041694 423.24070557 -580.48828125 425.5703125 C-576.91043058 426.70184786 -573.49368986 428.0962202 -570.03125 429.53515625 C-567.03739015 430.68941547 -564.01143898 431.6158474 -560.9375 432.53515625 C-556.33540515 433.91631797 -551.93707747 435.49157137 -547.50390625 437.33203125 C-542.3063872 439.37131261 -537.0201311 441.16165641 -531.74389648 442.9855957 C-526.6117925 444.76207397 -521.5144743 446.60721523 -516.4375 448.53515625 C-515.01064622 449.07092425 -513.58355866 449.60606999 -512.15625 450.140625 C-508.25 451.60546875 -504.34375 453.0703125 -500.4375 454.53515625 C-500.05849155 451.21883231 -500.15726972 449.90570358 -502.20703125 447.1953125 C-503.31111328 445.87853516 -503.31111328 445.87853516 -504.4375 444.53515625 C-505.81111608 442.07896203 -506.96780297 439.53664182 -508.125 436.97265625 C-508.43244141 436.31330078 -508.73988281 435.65394531 -509.05664062 434.97460938 C-511.21504794 430.2752324 -512.50713738 426.34658312 -512.71875 421.19921875 C-512.75613281 420.38195312 -512.79351563 419.5646875 -512.83203125 418.72265625 C-512.86683594 417.87703125 -512.90164063 417.03140625 -512.9375 416.16015625 C-513.19104347 409.64409111 -513.19104347 409.64409111 -514.0390625 403.1875 C-514.65730778 399.07192603 -513.38759165 396.13133286 -511.4375 392.53515625 C-508.875 389.66015625 -508.875 389.66015625 -506.4375 387.53515625 C-505.7775 386.87515625 -505.1175 386.21515625 -504.4375 385.53515625 C-505.26894531 384.68244141 -505.26894531 384.68244141 -506.1171875 383.8125 C-513.43057644 376.0176246 -514.72384641 370.3890212 -514.578125 359.82421875 C-514.41792906 356.07741379 -514.03145172 352.3930765 -513.58203125 348.671875 C-513.33165375 346.35522148 -513.33165375 346.35522148 -514.0625 343.41015625 C-514.60608379 339.2426805 -513.41013827 336.19432494 -511.4375 332.53515625 C-508.79995072 329.43603584 -507.29742365 327.82179747 -503.4375 326.53515625 C-502.28228498 324.06384707 -502.28228498 324.06384707 -501.4375 321.53515625 C-501.1075 321.20515625 -500.7775 320.87515625 -500.4375 320.53515625 C-500.05915896 318.52226367 -499.73529116 316.49903205 -499.4375 314.47265625 C-499.17453125 312.69955078 -499.17453125 312.69955078 -498.90625 310.890625 C-498.55225473 308.35660889 -498.22622426 305.82696088 -497.9375 303.28515625 C-496.23327465 290.50346611 -496.23327465 290.50346611 -492.4375 286.53515625 C-493.62692361 284.0571904 -494.90581032 281.79937411 -496.38671875 279.47265625 C-498.83193068 275.20603362 -499.64959264 270.89883504 -500.5 266.09765625 C-501.37659778 261.30125004 -502.25544778 256.76191284 -504.09375 252.23046875 C-505.8930169 247.28248479 -505.31378127 244.32703144 -503.4375 239.53515625 C-500.92866137 235.72864246 -497.69533319 232.71353009 -494.4375 229.53515625 C-493.07625 228.17390625 -493.07625 228.17390625 -491.6875 226.78515625 C-490.60416667 225.70182292 -489.52083333 224.61848958 -488.4375 223.53515625 C-488.44343323 221.84715235 -488.49290252 220.1592352 -488.5625 218.47265625 C-488.6076488 211.51071205 -487.48772567 206.82945641 -482.8125 201.59765625 C-482.02875 200.91703125 -481.245 200.23640625 -480.4375 199.53515625 C-478.7497094 197.84736565 -479.22562323 195.7822884 -479.1875 193.47265625 C-479.14882812 192.09400391 -479.14882812 192.09400391 -479.109375 190.6875 C-479.30597461 187.371067 -479.30597461 187.371067 -480.92578125 183.88671875 C-483.36757172 177.80679044 -482.87280158 171.39120621 -482.87695312 164.93554688 C-482.99938197 158.52280861 -483.81875297 154.84451483 -487.4375 149.53515625 C-488.92101956 144.88679497 -488.25536891 141.77792748 -486.4609375 137.390625 C-485.4375 135.53515625 -485.4375 135.53515625 -482.9375 133.28515625 C-480.12622995 130.1927592 -479.7990542 128.54921559 -478.9375 124.53515625 C-477.78757864 119.25331406 -476.867631 116.66866355 -472.4375 113.53515625 C-471.11538205 113.15979907 -469.78247887 112.81785881 -468.4375 112.53515625 C-468.67726563 111.98988281 -468.91703125 111.44460938 -469.1640625 110.8828125 C-471.52368152 104.88117281 -471.8247969 100.57983904 -469.4375 94.53515625 C-466.26822717 89.32849374 -462.27608827 87.32029769 -456.5 85.72265625 C-453.43451936 85.53497376 -451.43058767 86.11150404 -448.546875 87.04296875 C-440.95593706 88.8141876 -432.37633335 88.17732396 -425.4375 84.53515625 C-423.75038577 82.88919115 -422.0829378 81.22278476 -420.4375 79.53515625 C-416.16340708 76.96690973 -412.59378272 76.19988052 -407.6875 77.16015625 C-404.98056472 77.89463186 -403.53204071 78.4600798 -401.3125 80.22265625 C-398.38893558 82.26915134 -395.88733428 81.07101883 -392.4375 80.53515625 C-381.10426465 79.91020584 -372.61238949 80.31237091 -363.4375 87.53515625 C-362.27446473 88.89563704 -361.12970481 90.27187456 -360 91.66015625 C-356.73633235 95.57947142 -354.43014779 96.72003008 -349.4375 97.53515625 C-349.375625 96.97828125 -349.31375 96.42140625 -349.25 95.84765625 C-347.86447211 91.90423073 -345.22667206 89.39779278 -341.46875 87.5859375 C-338.78098623 86.55796815 -336.15392753 85.68136595 -333.33203125 85.10546875 C-331.14216856 84.61736725 -331.14216856 84.61736725 -329.1875 82.16015625 C-325.42584726 78.56948772 -321.37995328 77.15981114 -316.33984375 76.08984375 C-312.62271352 75.0059988 -310.33571722 71.640106 -307.9609375 68.71875 C-304.92064904 64.98465212 -302.97432599 63.29947747 -298.4375 61.53515625 C-297.74091637 59.88077012 -297.07653117 58.21261307 -296.4375 56.53515625 C-292.43409452 52.28912013 -288.01484531 51.36792294 -282.4375 50.53515625 C-281.7775 50.53515625 -281.1175 50.53515625 -280.4375 50.53515625 C-279.73625 49.77203125 -279.035 49.00890625 -278.3125 48.22265625 C-274.911729 45.04367466 -272.04825442 43.29679064 -267.4375 42.53515625 C-259.72048611 43.25217014 -259.72048611 43.25217014 -257.4375 45.53515625 C-255.41913988 45.69520243 -253.3973458 45.81263785 -251.375 45.91015625 C-246.66392015 46.23717264 -242.96209979 46.83397191 -238.66796875 48.7109375 C-234.51642005 50.24504744 -230.1377428 50.93499703 -225.8046875 51.7890625 C-222.4375 52.53515625 -222.4375 52.53515625 -219.2421875 53.63671875 C-213.93377967 55.33718365 -209.24454656 53.84242253 -204.203125 52.0078125 C-197.59021018 49.99975632 -190.97385697 50.08437361 -184.13330078 50.14404297 C-181.94109893 50.16012984 -179.75073991 50.14412183 -177.55859375 50.125 C-170.48499367 50.11704044 -164.07843604 50.39006963 -157.39892578 53.02026367 C-154.49850729 53.7816506 -152.51504622 52.55385661 -149.8984375 51.3203125 C-142.77527593 49.04768476 -131.95553358 49.24338058 -125.1640625 52.4296875 C-118.66216684 56.59266595 -110.93354981 63.04700682 -108.4375 70.53515625 C-105.58525624 71.00902109 -102.7367547 71.43947144 -99.875 71.84765625 C-99.07513672 71.98494141 -98.27527344 72.12222656 -97.45117188 72.26367188 C-92.97378441 72.86674855 -90.27479104 72.88676824 -86.5078125 70.22265625 C-85.46079206 69.35450311 -84.43501647 68.45976566 -83.4375 67.53515625 C-82.591875 66.77203125 -81.74625 66.00890625 -80.875 65.22265625 C-78.86691433 63.00861308 -77.21569736 60.84146831 -75.5 58.41015625 C-72.86203301 54.84588025 -70.73129367 52.9950461 -66.4375 51.53515625 C-65.08550832 51.38849049 -63.73091799 51.26445763 -62.375 51.16015625 C-57.69658153 50.41755014 -56.48586455 49.01900145 -53.4375 45.53515625 C-51.9525 45.04015625 -51.9525 45.04015625 -50.4375 44.53515625 C-50.14875 43.77203125 -49.86 43.00890625 -49.5625 42.22265625 C-48.15964939 38.87140202 -46.41696197 37.54629308 -43.4375 35.53515625 C-42.7775 35.53515625 -42.1175 35.53515625 -41.4375 35.53515625 C-41.19 34.79265625 -40.9425 34.05015625 -40.6875 33.28515625 C-39.4375 30.53515625 -39.4375 30.53515625 -37.4375 28.78515625 C-35.24823788 26.32223637 -35.02134056 25.25143784 -34.4375 22.09765625 C-33.644927 17.936648 -32.59519075 15.51741974 -29.4375 12.53515625 C-26.07116768 10.44054947 -23.77250485 9.56981192 -19.8125 9.16015625 C-15.53723125 8.36843982 -14.9540152 6.94462845 -12.4375 3.53515625 C-8.34895666 1.15017263 -4.75908105 -0.90758116 0 0 Z " fill="#FEFEFE" transform="translate(1186.4375,193.46484375)"/>
<path d="M0 0 C0.66 0.66 1.32 1.32 2 2 C4.61840067 2.33905789 4.61840067 2.33905789 7.671875 2.34375 C9.38117188 2.38822266 9.38117188 2.38822266 11.125 2.43359375 C12.32125 2.45550781 13.5175 2.47742187 14.75 2.5 C17.09913116 2.54359741 19.44812702 2.59541531 21.796875 2.65625 C22.84198242 2.67494141 23.88708984 2.69363281 24.96386719 2.71289062 C28.22808455 3.02156863 30.90854387 3.94006467 34 5 C36.1280721 5.22303691 36.1280721 5.22303691 38.12890625 5.08984375 C39.21655273 5.05987305 39.21655273 5.05987305 40.32617188 5.02929688 C41.82112172 4.96793212 43.31592181 4.90280725 44.81054688 4.83398438 C49.43741841 4.71450149 52.19433557 5.05893718 56 8 C56.99 8.99 56.99 8.99 58 10 C60.75880544 10.38959941 60.75880544 10.38959941 63.875 10.5 C69.57016253 10.77986057 69.57016253 10.77986057 71.9296875 11.98828125 C78.56859308 15.23257662 89.90059436 14.63832438 97 13 C98.81476003 11.60414215 98.81476003 11.60414215 100 10 C107.97433525 7.34188825 116.3851159 8.27146963 124 11.5625 C132.22970076 15.85234402 136.16796669 20.84976645 139.3125 29.5234375 C141.09014914 35.92701453 140.18983343 42.77009955 138 49 C137.50113281 49.55429688 137.00226563 50.10859375 136.48828125 50.6796875 C134.16093209 54.30815312 134.28381854 58.14352362 134 62.375 C133.43840383 70.67130709 132.1593622 76.03311787 126 82 C124.98812105 83.65948148 123.9873454 85.32580562 123 87 C122.27296875 87.66515625 122.27296875 87.66515625 121.53125 88.34375 C119.09538462 90.97846154 118.32550622 94.182638 117.16015625 97.52734375 C116 100 116 100 113.96875 101.96875 C111.5610643 104.45287017 111.14893261 106.20221137 110.4375 109.5625 C110.19515625 110.61953125 109.9528125 111.6765625 109.703125 112.765625 C109.25261321 114.83797921 108.80447678 116.91085209 108.359375 118.984375 C107.03807546 124.54612422 105.58906165 128.29942304 101.5 132.3671875 C99.8763064 134.01289849 99.8763064 134.01289849 98.65234375 136.36328125 C96.66444773 139.53545574 94.29104189 141.75426059 91.5625 144.3125 C83.82096634 151.87611088 81.71309886 157.50315083 80.4921875 168.2421875 C80 171 80 171 78 173 C77.01 173 76.02 173 75 173 C74.814375 174.918125 74.814375 174.918125 74.625 176.875 C74.25 180.75 74.25 180.75 72 183 C70.91582175 186.21741966 70.01798475 189.47055619 69.09765625 192.73828125 C67.5529157 197.32852451 65.43634407 200.84945118 62 204.25 C61.505 204.75015625 61.01 205.2503125 60.5 205.765625 C57.12310292 208.54452989 53.29604396 208.19709035 49.125 208.25 C47.30355469 208.28867188 47.30355469 208.28867188 45.4453125 208.328125 C39.68774468 207.77978521 36.32617815 204.8900238 32.68359375 200.5 C29.14156067 195.24036851 26.50228987 189.42054122 23.81787109 183.68701172 C22.99230183 181.91415172 22.99230183 181.91415172 21.7734375 179.99609375 C20.54407338 176.8233409 20.79270734 173.59867838 20.875 170.25 C20.88402344 169.55261719 20.89304687 168.85523438 20.90234375 168.13671875 C20.92580112 166.42433042 20.96166896 164.71211996 21 163 C19.94683594 162.89429688 18.89367188 162.78859375 17.80859375 162.6796875 C14.07041794 162.01256689 12.18797255 161.16136947 9.0625 159.125 C3.08404623 155.65898936 -2.67157579 154.65653542 -9.3984375 153.640625 C-12.58558914 153.07371299 -15.0432835 152.24721429 -18 151 C-21.00989751 150.23551805 -24.03174129 149.55541489 -27.0625 148.87890625 C-31.41184259 147.57757369 -35.07377026 145.51147568 -38 142 C-40.73195291 133.80414127 -40.1225158 124.04751936 -40.25 115.4375 C-40.2713501 114.67622803 -40.2927002 113.91495605 -40.31469727 113.13061523 C-40.34376856 108.3740228 -39.43389777 105.96776043 -37 102 C-36.5991771 98.36704991 -36.5991771 98.36704991 -36.75 94.4375 C-36.76240723 93.73657227 -36.77481445 93.03564453 -36.78759766 92.31347656 C-36.74926879 80.79615466 -36.74926879 80.79615466 -40 70 C-39.82309499 66.63880477 -39.68121208 64.03974475 -37.8125 61.1875 C-36 60 -36 60 -32.9375 59.3125 C-29.95691839 58.33766481 -29.95691839 58.33766481 -29.0625 56.2734375 C-28.41522982 54.11317327 -28.03511742 52.25629412 -28 50 C-28.9873454 48.32580562 -29.98812105 46.65948148 -31 45 C-31.2299922 41.84181442 -30.96746052 39.01894308 -30 36 C-27.36020835 33.77701756 -25.25723634 33.08574545 -22 32 C-21.7763663 30.58566794 -21.57173524 29.16832382 -21.375 27.75 C-21.25898437 26.96109375 -21.14296875 26.1721875 -21.0234375 25.359375 C-20.9964787 22.64552213 -21.75630682 21.36733876 -23 19 C-22.82025445 15.58483451 -22.67028381 13.00542572 -20.75 10.125 C-18.54832896 8.70964005 -16.57531492 8.34801553 -14 8 C-13.773125 7.071875 -13.54625 6.14375 -13.3125 5.1875 C-12 2 -12 2 -9.8125 0.0625 C-6.14083725 -1.32457259 -3.77568821 -0.9261122 0 0 Z " fill="#9EB6C9" transform="translate(1353,1339)"/>
</svg>
